<?xml version="1.0" encoding="utf-8"?>
<!-- Generator: Adobe Illustrator 23.0.1, SVG Export Plug-In . SVG Version: 6.00 Build 0)  -->
<svg version="1.1" id="Layer_1" xmlns="http://www.w3.org/2000/svg" xmlns:xlink="http://www.w3.org/1999/xlink" x="0px" y="0px"
	 viewBox="0 0 860 265" style="enable-background:new 0 0 860 265;" xml:space="preserve">
<style type="text/css">
	.st0{fill:#403E56;}
	.st1{fill:#F47C52;}
</style>
<path class="st0" d="M719.2,11.7l-2.7,95.8l-2.7,95.3l-1.5,53.9c0,4.1,3.4,7.5,7.5,7.5c4.1-0.1,7.4-3.4,7.5-7.5l2.7-95.8l2.7-95.3
	l1.5-53.9c0-4.1-3.4-7.5-7.5-7.5C722.6,4.3,719.3,7.6,719.2,11.7z"/>
<circle class="st0" cx="728.2" cy="253" r="11"/>
<circle class="st0" cx="755.2" cy="113" r="11"/>
<circle class="st0" cx="723.2" cy="11" r="11"/>
<path class="st0" d="M263,113.8c-0.3-1-0.9-1.9-1.7-2.7c-0.3-0.3-0.6-0.5-0.9-0.7c-2.6-1.7-6.5-2.1-9,0c-0.2,0.2-0.5,0.5-0.7,0.7
	c-0.7,0.9-1.5,1.8-2.3,2.7c-1.3,1.5-2.6,2.9-4,4.2c-0.4,0.4-0.8,0.8-1.2,1.2c-0.2,0.2-0.5,0.5-0.7,0.7c-0.9,0.8-1.8,1.7-2.7,2.5
	c-0.5,0.4-1,0.8-1.5,1.3c-0.7,0.6-1.5,1.2-2.2,1.8c-0.1,0-0.1,0.1-0.2,0.2c0,0,0,0,0,0c0,0,0,0,0,0c0,0-0.1,0-0.1,0
	c-0.2,0.2-0.4,0.3-0.5,0.3c0,0,0.1,0,0.1-0.1c-0.2,0.1-0.4,0.3-0.5,0.4c-1.8,1.3-3.5,2.5-5.4,3.7c-4.5,2.9-9.3,5.4-14.2,7.5
	c-0.3,0.1-0.7,0.3-1,0.4c-12.9,5.3-26.9,7.4-40.9,6c-1.4-0.1-2.8-0.3-4.3-0.5c-1.6-0.2-3.3-0.5-4.9-0.9c-6.2-1.2-12.2-3.1-18-5.4
	c-7.3-3.3-14.2-7.4-20.7-12.1c-1-0.7-2-1.4-3-2.1c1.1-2.8,2.3-5.6,3.4-8.5c0.5-1.4,1.1-2.7,1.6-4.1c4.1-10.6,7.9-21.4,11.6-32.1
	c3.7-10.9,7.2-21.9,10.5-32.9c0.3-1.1,0.7-2.2,1-3.4c1.7-5.8,3.4-11.7,5-17.5c0.1-0.6,0.3-1.1,0.5-1.7c0.5-1.7,0.9-3.4,1.4-5
	c1-3.8-1.3-8.3-5.2-9.2c-4-1-8.1,1.3-9.2,5.2c-0.4,1.6-0.9,3.2-1.3,4.9c-2.1,7.8-4.3,15.6-6.7,23.4c-0.3,1.1-0.7,2.2-1,3.4
	c-5.1,16.9-10.8,33.7-16.9,50.3c-0.7,2-1.5,4-2.3,6c-0.4,1-0.7,2-1.1,2.9c-0.7,1.9-1.5,3.9-2.2,5.8c-0.4,1.1-0.9,2.3-1.3,3.4
	c-0.3,0.7-0.6,1.4-0.9,2.1c-2.9-1-5.8-1.7-8.8-2.1l-0.5-0.1c-2.3-0.3-4.7-0.3-7,0.1c-7,0.8-13.4,4.7-17.2,10.7
	c-4.8,7.5-4.7,18.3,2,24.6c6.9,6.6,17.3,6.5,25.4,2.4c4.3-2.3,7.9-5.7,10.5-9.9c1-1.5,1.9-3.1,2.7-4.7c0.2,0.1,0.4,0.3,0.6,0.4
	c0.8,0.6,1.6,1.1,2.4,1.7c4.6,3.3,9.5,6.3,14.5,8.9c10.9,5.4,22.6,8.9,34.6,10.5c0.3,0,0.5,0.1,0.8,0.1c1.3,0.2,2.7,0.3,4,0.4
	c19.2,1.4,38.5-2.5,55.6-11.4c1.4-0.8,2.9-1.5,4.3-2.4c2.2-1.3,4.4-2.6,6.5-4.1c1.1-0.8,2.3-1.6,3.4-2.4c4.9-3.6,9.4-7.6,13.5-12
	c1.6-1.6,3.1-3.4,4.5-5.1c1.4-1.4,2.1-3.3,2.2-5.3C263.5,115.6,263.3,114.7,263,113.8z M97.4,137.7c0.2-0.2,0.4-0.3,0.6-0.5
	C98,137.3,97.7,137.5,97.4,137.7L97.4,137.7z M100.6,134.4c-0.2,0.3-0.4,0.5-0.7,0.8c-0.7,0.8-1.5,1.5-2.3,2.2
	c-0.1,0.1-0.2,0.2-0.4,0.3c0,0,0,0,0,0c0,0,0,0,0,0c-0.1,0.1-0.3,0.1-0.4,0.2c-0.4,0.3-0.9,0.5-1.3,0.7c-0.9,0.3-1.8,0.6-2.7,0.8
	c-0.7,0.1-1.4,0.1-2.1,0h0c-0.5-0.1-1-0.2-1.5-0.4c-0.2-0.1-0.5-0.3-0.7-0.4c-0.1-0.1-0.2-0.2-0.2-0.2c-0.1-0.1-0.2-0.2-0.3-0.3
	c0,0,0,0,0,0c0,0,0,0,0,0c-0.1-0.2-0.2-0.4-0.3-0.6c0,0,0,0,0,0c-0.1-0.3-0.1-0.5-0.2-0.8c0-0.5,0-0.9,0-1.4
	c0.1-0.6,0.3-1.3,0.5-1.9c0.2-0.4,0.4-0.9,0.7-1.3c0,0,0.1-0.2,0.2-0.4c0,0,0,0,0,0c0.1-0.2,0.3-0.3,0.5-0.5
	c0.3-0.3,0.6-0.6,0.9-0.8c0.6-0.4,1.1-0.7,1.8-1c1-0.3,1.9-0.6,2.9-0.8c1.5-0.1,2.9-0.1,4.4,0c1.4,0.2,2.8,0.6,4.1,1
	c-0.8,1.6-1.7,3.1-2.8,4.5C100.7,134.3,100.6,134.4,100.6,134.4z M89.5,131.1c-0.1,0.1-0.2,0.3-0.3,0.4
	C89.3,131.4,89.4,131.3,89.5,131.1L89.5,131.1z"/>
<path class="st0" d="M232.9,11.7c-0.1,3.1-0.2,6.3-0.3,9.4c-0.2,7-0.4,13.9-0.6,20.9c-0.2,7.8-0.4,15.7-0.7,23.5
	c-0.1,4.1-0.2,8.1-0.3,12.2c-0.3,10.9-0.6,21.8-0.9,32.7c0,1.1-0.1,2.3-0.1,3.4c-0.1,5.4-0.3,10.8-0.5,16.2
	c-0.2,5.9-0.3,11.7-0.5,17.6c-0.1,4.4-0.2,8.8-0.4,13.2c-0.9,31.9-1.8,63.9-2.7,95.8c-0.1,4.1-3.4,7.4-7.5,7.5
	c-4.1,0-7.5-3.4-7.5-7.5c0.5-18,1-35.9,1.5-53.9c0.5-16.2,0.9-32.5,1.4-48.7c0.1-5.4,0.3-10.7,0.5-16.1c0.2-8.1,0.5-16.1,0.7-24.2
	c0-1.1,0.1-2.3,0.1-3.4c0-1,0-2,0.1-3c0.4-15.7,0.9-31.3,1.3-47c0.2-6.2,0.4-12.3,0.5-18.5c0.2-7,0.4-14.1,0.6-21.1
	c0.1-3.1,0.2-6.2,0.3-9.3c0.1-4.1,3.4-7.4,7.5-7.5C229.6,4.2,232.9,7.6,232.9,11.7z"/>
<path class="st0" d="M644.4,13.8c-7.9,29.8-17.3,59.1-28.2,87.9c-3,7.9-6.1,15.9-9.4,23.7l0.8-1.8c-1.5,3.7-3.3,7.3-5.6,10.6
	c-0.2,0.2-0.3,0.4-0.5,0.6c0.8-1,0.9-1.2,0.4-0.6c-0.3,0.3-0.5,0.6-0.8,0.9c-0.7,0.8-1.5,1.5-2.2,2.2c-0.2,0.2-0.4,0.3-0.6,0.5
	l0.9-0.7c-0.1,0.3-0.9,0.6-1.1,0.7c-0.8,0.5-1.6,0.9-2.4,1.2l1.8-0.8c-1.4,0.5-2.8,0.9-4.2,1.2l2-0.3c-1.4,0.2-2.9,0.2-4.3,0l2,0.3
	c-1.2-0.2-2.3-0.5-3.4-0.9l1.8,0.8c-0.6-0.3-1.1-0.6-1.7-0.9c-0.3-0.2-1.1-0.8,0,0c1.1,0.9,0.1,0.1-0.1-0.2
	c-0.2-0.2-0.4-0.4-0.6-0.6c-0.9-0.9,1,1.6,0.4,0.5c-0.3-0.5-0.6-1.1-0.9-1.6l0.8,1.8c-0.3-0.9-0.6-1.7-0.7-2.7l0.3,2
	c-0.1-1.1-0.1-2.3,0-3.4l-0.3,2c0.2-1.3,0.5-2.5,1-3.7l-0.8,1.8c0.3-0.8,0.7-1.6,1.2-2.3c0.2-0.4,0.5-0.7,0.7-1.1
	c0,0-1.3,1.5-0.6,0.8c0.2-0.2,0.4-0.4,0.5-0.6c0.3-0.3,0.6-0.6,0.9-0.9c1-1-1.5,1-0.3,0.2c0.9-0.6,1.8-1.1,2.7-1.5l-1.8,0.8
	c1.6-0.7,3.3-1.1,5-1.3l-2,0.3c2.1-0.2,4.3-0.2,6.5,0.1l-2-0.3c2.7,0.4,5.4,1.2,7.9,2.2l-1.8-0.8c5.4,2.3,10.2,5.7,14.9,9.1
	c4.6,3.3,9.5,6.3,14.5,8.9c10.9,5.4,22.6,8.9,34.6,10.5c35.1,4.3,70-9.5,92.6-36.8c1.4-1.4,2.1-3.3,2.2-5.3c0-2-0.8-3.9-2.2-5.3
	c-2.8-2.5-7.9-3.2-10.6,0c-2.5,3.1-5.2,6-8.1,8.7c-1.3,1.3-2.7,2.5-4.1,3.7c-0.8,0.7-1.6,1.4-2.5,2c-0.4,0.3-1.6,1.1,0.3-0.2
	c-0.4,0.3-0.8,0.6-1.3,1c-6.3,4.6-13.1,8.5-20.3,11.6l1.8-0.8c-7.7,3.2-15.9,5.5-24.2,6.6l2-0.3c-8.5,1.1-17.2,1.1-25.8,0l2,0.3
	c-8.5-1.2-16.9-3.4-24.9-6.8l1.8,0.8c-7.7-3.4-15-7.6-21.7-12.6c-3.5-2.6-7.2-4.9-11.1-7c-4.5-2.3-9.4-3.8-14.4-4.4
	c-9.4-1.1-19.1,2.6-24.2,10.7c-4.8,7.5-4.7,18.2,2,24.6c6.9,6.6,17.3,6.5,25.4,2.4c7.8-4,12.5-12.2,15.8-19.9
	c7.4-17.5,14-35.3,20.1-53.3c6.1-17.8,11.6-35.7,16.5-53.8c0.6-2.2,1.2-4.5,1.8-6.7c1-3.8-1.3-8.3-5.2-9.2
	C649.6,7.5,645.5,9.8,644.4,13.8L644.4,13.8z"/>
<path class="st0" d="M445.4,198.1c-2.9,13.1-10,24.9-20,33.7c-0.7,0.6-1.5,1.3-2.3,1.9c-1.9,0.2-3.7,0.3-5.6,0.5
	c-1.5,0.1-3,0.3-4.5,0.4l-0.3,0l-0.2-1.6l-0.8-6.6c-6-9.8-7.2-21.7-3.3-32.4c2.6-7.1,7.4-13.4,12.1-19.7c6.5-8.6,12.8-17.1,13-27.7
	c3.2,4.1,5.8,8.6,7.9,13.3c-1.9,0.9-3.7,2.2-5.1,3.8c-0.4,0.5-0.8,1.1-0.5,1.6c0.2,0.5,0.8,0.6,1.4,0.6c1.3,0.1,2.5,0.3,3.8,0.4
	c1,0.1,2,0.2,3,0.3c1.2,4,2,8.1,2.5,12.2C447.1,185.3,446.7,191.8,445.4,198.1z"/>
<path class="st1" d="M478.6,171.9c-5.9,4.3-9.3,10.5-12,17.3c-2.7,0.9-5.2,2.5-7.2,4.6c-0.4,0.5-0.8,1.1-0.5,1.6
	c0.2,0.5,0.8,0.6,1.4,0.6c1.3,0.1,2.5,0.3,3.8,0.4c-2.7,8-5.1,16.4-9.9,23.2c-3.2,4.5-7.3,8.2-12,10.9c-1.3,0.7-2.6,1.4-4,2
	c-5.1,0.4-10.1,0.8-15,1.3c-1.9,0.2-3.7,0.3-5.6,0.5c-1.5,0.1-3,0.3-4.5,0.4c0-0.5,0-1.1,0-1.7c0.3-14.7,5.7-28.7,15.3-39.9
	c0.5-0.5,0.9-1,1.4-1.5c4.8-5.2,10.5-9.5,16.8-12.7C456.3,173.8,467.4,171.3,478.6,171.9z"/>
<path class="st1" d="M419.2,229.1l-1.2,3.4l-0.6,1.7c-1.5,0.1-3,0.3-4.5,0.4l-0.3,0c-1.7,0.2-3.3,0.3-5,0.5c-0.4-0.5-0.9-1-1.3-1.5
	c-21.7-26.3-18.1-65.2,8.1-87.1c-1.3,6.9,0.2,13.5,2.8,20.1c-0.3,0.1-0.5,0.2-0.8,0.3c-1.9,0.9-3.7,2.2-5.1,3.8
	c-0.4,0.5-0.8,1.1-0.5,1.6c0.2,0.5,0.8,0.6,1.4,0.6c1.3,0.1,2.5,0.3,3.8,0.4c1,0.1,2,0.2,3,0.3c0.5,0,0.9,0.1,1.4,0.2
	c0.1,0.2,0.1,0.3,0.2,0.4c2.8,6.2,5.9,12.4,7.7,18.8c0.4,1.6,0.8,3.3,1,4.9C430.8,209.4,427.1,220.8,419.2,229.1z"/>
<path class="st0" d="M519.9,84.1c-8.6-16.8-21.9-30.9-37.6-41.3c-15.7-10.4-33.8-16.7-52.6-18.4c-2.5-0.2-4.9-0.4-7.4-0.4
	c-2.9,0-46.9,12.6-61.6,23c-14.7,10.2-26.8,23.8-35.3,39.5c-8.5,15.8-12.7,33.7-12.1,51.6c0.7,18.1,5.8,35.7,14.7,51.5
	c8.8,15.7,21.3,29,36.4,38.7c15.3,9.8,30.7,35.7,48.9,36.7c18.2,0.9,39.1-23.6,55.7-31c16.6-7.5,31-19.2,41.7-34
	c10.4-14.5,17.1-31.3,19.6-48.9c2.6-18.1,1.4-36.7-4.8-54C523.9,92.6,522,88.3,519.9,84.1c-1.8-3.5-7-4.8-10.3-2.7
	c-3.5,2.2-4.7,6.7-2.7,10.3c1,2.1,2,4.2,2.9,6.3l-0.8-1.8c3.4,8.2,5.7,16.8,6.9,25.5l-0.3-2c1.2,9.5,1.2,19.2-0.1,28.7l0.3-2
	c-1.3,9.5-3.8,18.8-7.6,27.7l0.8-1.8c-1.9,4.5-4.1,8.9-6.7,13.1c-1.3,2.1-2.6,4.2-4.1,6.2c-0.6,0.9-1.3,1.8-1.9,2.6
	c-0.9,1.1,1.2-1.5,0.3-0.4c-0.2,0.2-0.3,0.4-0.5,0.6c-0.5,0.6-0.9,1.1-1.4,1.7c-3.1,3.7-6.5,7.2-10.2,10.4c-0.9,0.8-1.8,1.6-2.8,2.3
	c-0.5,0.4-0.9,0.8-1.4,1.1c0,0,1.6-1.2,0.7-0.5c-0.3,0.2-0.6,0.4-0.9,0.7c-1.9,1.4-3.9,2.8-6,4.1c-4.7,3-9.6,5.5-14.8,7.7l1.8-0.8
	c-8.8,3.7-18.1,6.3-27.6,7.6l2-0.3c-9.5,1.3-19.1,1.3-28.6,0.1l2,0.3c-8.6-1.2-17.1-3.4-25.1-6.8l1.8,0.8c-4.7-2-9.1-4.3-13.4-7
	c-2.1-1.3-4.2-2.7-6.2-4.2c-0.3-0.2-0.6-0.4-0.9-0.6c-0.9-0.7,0.7,0.5,0.7,0.5c-0.5-0.4-1-0.8-1.5-1.2c-1-0.8-1.9-1.6-2.9-2.4
	c-3.8-3.3-7.3-6.9-10.5-10.7c-0.8-1-1.6-1.9-2.4-2.9c-0.3-0.4-0.9-1.3,0.4,0.5c-0.2-0.2-0.4-0.5-0.5-0.7c-0.4-0.6-0.9-1.1-1.3-1.7
	c-1.5-2-2.9-4.1-4.2-6.2c-3-4.8-5.6-9.9-7.8-15.1l0.8,1.8c-3.6-8.6-6.1-17.6-7.3-26.8l0.3,2c-1.1-8.5-1.2-17.1,0-25.6l-0.3,2
	c1.1-8.2,3.4-16.3,6.6-24l-0.8,1.8c2-4.8,4.4-9.4,7.2-13.9c1.4-2.2,2.8-4.4,4.4-6.5c0.4-0.5,0.7-1,1.1-1.4c0.3-0.4,1.2-1.5-0.3,0.4
	c0.1-0.2,0.3-0.4,0.4-0.6c0.8-1.1,1.7-2.1,2.6-3.2c3.4-3.9,7-7.6,10.9-11c1-0.9,2-1.7,3-2.5c0.5-0.4,0.9-0.7,1.4-1.1
	c0.2-0.1,0.4-0.3,0.6-0.4c-2,1.6-0.6,0.4-0.1,0.1c2.1-1.6,4.2-3.1,6.4-4.5c4.9-3.1,10-5.8,15.4-8.1l-1.8,0.8
	c7.8-3.3,42.1-10.9,48.4-10.1l-2-0.3c9.2,1.3,18.2,3.8,26.7,7.4l-1.8-0.8c4.3,1.8,8.5,4,12.6,6.3c2,1.2,4,2.4,6,3.8
	c0.9,0.6,1.8,1.3,2.7,1.9c0.5,0.3,0.9,0.7,1.3,1c0.2,0.2,0.5,0.4,0.7,0.6c1,0.8-1.4-1.1-0.3-0.3c3.6,2.9,7.1,6,10.4,9.3
	c1.6,1.6,3.1,3.3,4.6,5c0.8,0.9,1.5,1.8,2.2,2.7c0.4,0.5,1.6,2.1,0.1,0.1c0.4,0.5,0.7,1,1.1,1.5c3.2,4.3,6,8.8,8.4,13.5
	c1.8,3.5,7,4.8,10.3,2.7C520.7,92.2,521.9,87.7,519.9,84.1z"/>
<path class="st0" d="M432.5,206.5c-2.1,0.1-3.9-1.5-3.9-3.6c-0.1-1.1,0.4-2.2,1.2-2.9c0.1-0.4,0.2-0.7,0.3-1c0-0.1-0.1-0.2-0.1-0.2
	c-3.5-8.3-25.7,14.8-26.6,22.6c-0.4,3.4-0.2,6.9,0.5,10.3c-7.2-15.7-10.9-32.7-11-50c0-4.3,0.2-8.7,0.7-13c0.4-3.5,1-7,1.7-10.5
	c3.9-18.9,12.1-36.6,24.2-51.6c6.9,0.4,12.9-0.7,13.5-14c0.1-2.4,1.9-4.4,2.2-6.8c-0.7,0.1-1.3,0.1-2,0.2c-0.2,0-0.4,0-0.6,0l-0.1,0
	c-2.1,0.1-3.8-1.5-3.9-3.6c0-0.9,0.3-1.8,0.8-2.5c0.3-0.3,0.6-0.7,0.9-1c0.4-0.5,0.9-1.1,1.3-1.6c0-0.1,0.1-0.1,0.1-0.2
	c0.5-0.6,1-1.2,1.5-1.8c-0.9-1.4-2.1-2.6-3.6-3.4c-5-2.9-11.8-0.9-15.4,3.6c-3.6,4.5-4.3,10.8-3,16.4c1.2,4.8,3.3,9.3,6,13.4
	c-0.3,0.3-0.5,0.7-0.8,1c-4.9,6.3-9.2,13.1-12.8,20.3c1-7.9-11.4-36.6-16.2-42.7c-5.8-7.3-17.6-4.1-18.6,5.1c0,0.1,0,0.2,0,0.3
	c0.7,0.4,1.4,0.8,2.1,1.3c2.4,1.6,3,4.8,1.4,7.1c-0.8,1.2-2.1,2-3.5,2.2l-0.1,0c-9.6,13.6,21.1,49.2,28.7,41.2
	c-3.6,10.2-5.9,20.9-6.7,31.7c-0.5,6.4-0.5,12.8,0.1,19.2l0-0.2c-1.7-13.9-30.9-34.5-39.5-32.8c-4.9,1-9.8,0.8-9,5.7
	c0,0.1,0,0.2,0,0.2c1.3,0.5,2.6,1.2,3.9,1.9c0.7,0.4,1.4,0.8,2.1,1.3c2.4,1.6,3,4.8,1.4,7.1c-0.8,1.2-2.1,2-3.5,2.2l-0.1,0
	c-0.1,0-0.1,0-0.2,0c-4.3,15,27.9,39.1,47.5,31.4h0c1.9,8.4,4.8,16.7,8.4,24.5h30c0.1-0.3,0.2-0.7,0.3-1c-2.8,0.2-5.6,0-8.3-0.5
	c2.2-2.7,4.5-5.5,6.7-8.2c0-0.1,0.1-0.1,0.1-0.2c1.1-1.4,2.3-2.8,3.4-4.2l0,0C434,214.9,433.5,210.6,432.5,206.5L432.5,206.5z
	 M398.1,138.8L398.1,138.8L398.1,138.8L398.1,138.8z M391.5,198.8l-0.3-0.6c0-0.4,0-0.8,0-1.3c0-0.1,0-0.2,0-0.4
	C391.3,197.3,391.4,198.1,391.5,198.8L391.5,198.8z"/>
<circle class="st0" cx="95.2" cy="133" r="11"/>
<circle class="st0" cx="227.2" cy="253" r="11"/>
<path class="st0" d="M264.2,113c0,6-4.9,10.9-11,10.9c-6,0-10.9-4.9-10.9-11c0-6,4.9-10.9,11-10.9c5.2,0,9.7,3.7,10.7,8.8
	C264.2,111.6,264.3,112.3,264.2,113z"/>
<circle class="st0" cx="484.2" cy="43" r="11"/>
<path class="st0" d="M375.2,43c0,6-4.9,10.9-11,10.9c-6,0-10.9-4.9-10.9-11c0-6,4.9-10.9,11-10.9c5.2,0,9.7,3.7,10.7,8.8
	C375.2,41.6,375.3,42.3,375.2,43z"/>
<path class="st0" d="M233.2,11c0,6-4.9,10.9-11,10.9c-6,0-10.9-4.9-10.9-11c0-6,4.9-10.9,11-10.9c5.2,0,9.7,3.7,10.7,8.8
	C233.2,9.6,233.3,10.3,233.2,11z"/>
<circle class="st0" cx="599.2" cy="137" r="11"/>
<circle class="st0" cx="426.2" cy="32" r="16"/>
</svg>
