<svg xmlns="http://www.w3.org/2000/svg" xmlns:xlink="http://www.w3.org/1999/xlink" width="183" height="121" viewBox="0 0 183 121">
  <defs>
    <clipPath id="clip-Artboard_35">
      <rect width="183" height="121"/>
    </clipPath>
  </defs>
  <g id="Artboard_35" data-name="Artboard – 35" clip-path="url(#clip-Artboard_35)">
    <rect width="183" height="121" fill="#fff"/>
    <g id="Group_168868" data-name="Group 168868">
      <g id="Group_168865" data-name="Group 168865" transform="translate(-0.471)">
        <g id="Group_168308" data-name="Group 168308" transform="translate(0.471 0)">
          <rect id="Rectangle_148347" data-name="Rectangle 148347" width="183" height="121.166" rx="20" transform="translate(0)" fill="#fff"/>
          <g id="Group_162832" data-name="Group 162832" transform="translate(23.745 104.203)">
            <path id="Path_12585" data-name="Path 12585" d="M2257.37-473.3a.608.608,0,0,1-.236-.492.07.07,0,0,1,.019-.048.061.061,0,0,1,.047-.02h.159a.072.072,0,0,1,.078.072.389.389,0,0,0,.156.3.583.583,0,0,0,.344.1.45.45,0,0,0,.367-.156.64.64,0,0,0,.13-.422v-1.118h-1.115a.071.071,0,0,1-.052-.02.069.069,0,0,1-.02-.051v-.119a.069.069,0,0,1,.02-.052.071.071,0,0,1,.052-.02h1.34a.075.075,0,0,1,.055.02.074.074,0,0,1,.02.055v1.312a.957.957,0,0,1-.1.437.683.683,0,0,1-.277.291.85.85,0,0,1-.427.1A.916.916,0,0,1,2257.37-473.3Z" transform="translate(-2257.134 475.349)" fill="#858585"/>
            <path id="Path_12586" data-name="Path 12586" d="M2268.493-473.181a.059.059,0,0,1-.018-.044l.006-.034.775-2.021a.1.1,0,0,1,.1-.069h.2a.1.1,0,0,1,.1.069l.775,2.021.006.034a.057.057,0,0,1-.021.044.064.064,0,0,1-.045.019h-.147a.076.076,0,0,1-.052-.017.084.084,0,0,1-.027-.036l-.175-.45h-1.034l-.171.45a.083.083,0,0,1-.079.053h-.15A.06.06,0,0,1,2268.493-473.181Zm.534-.743h.856l-.428-1.122Z" transform="translate(-2266.507 475.349)" fill="#858585"/>
            <path id="Path_12587" data-name="Path 12587" d="M2282.28-473.183a.075.075,0,0,1-.018-.052v-2.04a.08.08,0,0,1,.018-.055.066.066,0,0,1,.051-.02h.137a.076.076,0,0,1,.047.012.237.237,0,0,1,.031.031l1.046,1.612v-1.581a.074.074,0,0,1,.021-.055.069.069,0,0,1,.051-.02h.141a.075.075,0,0,1,.055.02.074.074,0,0,1,.02.055v2.037a.076.076,0,0,1-.02.053.068.068,0,0,1-.052.022h-.14a.078.078,0,0,1-.075-.044l-1.046-1.6v1.568a.07.07,0,0,1-.02.052.07.07,0,0,1-.052.02h-.144A.065.065,0,0,1,2282.28-473.183Z" transform="translate(-2277.901 475.349)" fill="#858585"/>
          </g>
          <g id="Group_162834" data-name="Group 162834" transform="translate(15.06 68.792)">
            <g id="Group_162833" data-name="Group 162833" transform="translate(0 0)">
              <path id="Path_12588" data-name="Path 12588" d="M2207.112-677.189a.069.069,0,0,1-.021-.051v-.094a.183.183,0,0,1,.078-.137l.681-.678a1.928,1.928,0,0,0,.318-.322.455.455,0,0,0,.088-.266.393.393,0,0,0-.1-.289.4.4,0,0,0-.3-.1.4.4,0,0,0-.3.109.494.494,0,0,0-.134.294.082.082,0,0,1-.031.053.084.084,0,0,1-.05.019h-.15a.064.064,0,0,1-.047-.019.059.059,0,0,1-.019-.044.718.718,0,0,1,.089-.32.655.655,0,0,1,.245-.253.747.747,0,0,1,.393-.1.7.7,0,0,1,.527.183.64.64,0,0,1,.177.464.673.673,0,0,1-.1.355,1.455,1.455,0,0,1-.3.333l-.615.625h.984a.072.072,0,0,1,.053.019.071.071,0,0,1,.018.053v.119a.067.067,0,0,1-.02.051.069.069,0,0,1-.051.02h-1.369A.069.069,0,0,1,2207.112-677.189Z" transform="translate(-2207.091 679.39)" fill="#858585"/>
              <path id="Path_12589" data-name="Path 12589" d="M2218.6-677.359a1.025,1.025,0,0,1-.2-.617l0-.269,0-.278a1,1,0,0,1,.2-.614.71.71,0,0,1,.589-.236.712.712,0,0,1,.592.236.992.992,0,0,1,.2.614q0,.087,0,.278t0,.269a1.025,1.025,0,0,1-.2.617.707.707,0,0,1-.592.236A.7.7,0,0,1,2218.6-677.359Zm.951-.183a.753.753,0,0,0,.128-.45q0-.09,0-.259t0-.256a.751.751,0,0,0-.13-.448.427.427,0,0,0-.361-.161.423.423,0,0,0-.359.161.76.76,0,0,0-.128.448l0,.256,0,.259a.758.758,0,0,0,.128.45.424.424,0,0,0,.359.159A.427.427,0,0,0,2219.548-677.541Z" transform="translate(-2216.433 679.375)" fill="#858585"/>
            </g>
          </g>
          <g id="Group_162836" data-name="Group 162836" transform="translate(15.06 57.303)">
            <g id="Group_162835" data-name="Group 162835">
              <path id="Path_12590" data-name="Path 12590" d="M2207.112-743.391a.069.069,0,0,1-.021-.052v-.094a.183.183,0,0,1,.078-.137l.681-.678a1.932,1.932,0,0,0,.318-.322.455.455,0,0,0,.088-.266.393.393,0,0,0-.1-.289.4.4,0,0,0-.3-.1.4.4,0,0,0-.3.109.5.5,0,0,0-.134.294.083.083,0,0,1-.031.053.083.083,0,0,1-.05.019h-.15a.063.063,0,0,1-.047-.019.059.059,0,0,1-.019-.044.72.72,0,0,1,.089-.32.658.658,0,0,1,.245-.253.747.747,0,0,1,.393-.1.7.7,0,0,1,.527.183.641.641,0,0,1,.177.464.674.674,0,0,1-.1.355,1.455,1.455,0,0,1-.3.333l-.615.625h.984a.072.072,0,0,1,.053.019.07.07,0,0,1,.018.053v.119a.067.067,0,0,1-.02.052.068.068,0,0,1-.051.02h-1.369A.068.068,0,0,1,2207.112-743.391Z" transform="translate(-2207.091 745.592)" fill="#858585"/>
              <path id="Path_12591" data-name="Path 12591" d="M2218.6-743.56a1.025,1.025,0,0,1-.2-.617l0-.269,0-.278a1,1,0,0,1,.2-.614.71.71,0,0,1,.589-.236.712.712,0,0,1,.592.236.992.992,0,0,1,.2.614q0,.088,0,.278c0,.123,0,.213,0,.269a1.026,1.026,0,0,1-.2.617.707.707,0,0,1-.592.236A.7.7,0,0,1,2218.6-743.56Zm.951-.183a.752.752,0,0,0,.128-.45q0-.091,0-.259t0-.256a.751.751,0,0,0-.13-.448.427.427,0,0,0-.361-.161.423.423,0,0,0-.359.161.759.759,0,0,0-.128.448l0,.256,0,.259a.758.758,0,0,0,.128.45.424.424,0,0,0,.359.159A.427.427,0,0,0,2219.548-743.743Z" transform="translate(-2216.433 745.576)" fill="#858585"/>
            </g>
          </g>
          <g id="Group_162838" data-name="Group 162838" transform="translate(14.951 45.732)">
            <g id="Group_162837" data-name="Group 162837" transform="translate(0)">
              <path id="Path_12592" data-name="Path 12592" d="M2207.568-809.917a.069.069,0,0,1-.021-.052v-.456h-1.015a.07.07,0,0,1-.052-.02.069.069,0,0,1-.02-.052v-.116a.168.168,0,0,1,.034-.094l.94-1.325a.1.1,0,0,1,.047-.039.165.165,0,0,1,.069-.014h.212a.071.071,0,0,1,.053.019.071.071,0,0,1,.019.053v1.325h.284a.07.07,0,0,1,.052.02.07.07,0,0,1,.021.052v.119a.069.069,0,0,1-.021.052.07.07,0,0,1-.052.02h-.284v.456a.069.069,0,0,1-.02.052.07.07,0,0,1-.052.02h-.144A.07.07,0,0,1,2207.568-809.917Zm-.782-.764h.765v-1.087Z" transform="translate(-2206.461 812.114)" fill="#858585"/>
              <path id="Path_12593" data-name="Path 12593" d="M2218.9-810.25a1.027,1.027,0,0,1-.2-.617l0-.269,0-.278a.994.994,0,0,1,.2-.614.71.71,0,0,1,.589-.236.714.714,0,0,1,.592.236,1,1,0,0,1,.2.614c0,.058,0,.151,0,.278s0,.212,0,.269a1.026,1.026,0,0,1-.2.617.708.708,0,0,1-.592.236A.7.7,0,0,1,2218.9-810.25Zm.952-.183a.758.758,0,0,0,.128-.45q0-.091,0-.259t0-.256a.749.749,0,0,0-.13-.448.427.427,0,0,0-.361-.161.422.422,0,0,0-.359.161.754.754,0,0,0-.128.448l0,.256,0,.259a.753.753,0,0,0,.128.45.424.424,0,0,0,.359.159A.428.428,0,0,0,2219.854-810.432Z" transform="translate(-2216.577 812.263)" fill="#858585"/>
            </g>
          </g>
          <g id="Group_162840" data-name="Group 162840" transform="translate(15.035 34.375)">
            <g id="Group_162839" data-name="Group 162839" transform="translate(0)">
              <path id="Path_12594" data-name="Path 12594" d="M2207.321-875.405a.7.7,0,0,1-.278-.273.762.762,0,0,1-.1-.375,1.014,1.014,0,0,1,.216-.575l.6-.831.017-.022a.1.1,0,0,1,.036-.03.111.111,0,0,1,.05-.011h.153a.056.056,0,0,1,.045.02.073.073,0,0,1,.017.049.079.079,0,0,1-.016.04l-.456.638a.8.8,0,0,1,.181-.019.779.779,0,0,1,.4.1.725.725,0,0,1,.269.268.732.732,0,0,1,.095.367.766.766,0,0,1-.095.373.711.711,0,0,1-.276.276.853.853,0,0,1-.428.1A.878.878,0,0,1,2207.321-875.405Zm.682-.214a.441.441,0,0,0,.184-.167.5.5,0,0,0,.069-.267.482.482,0,0,0-.07-.264.461.461,0,0,0-.186-.169.55.55,0,0,0-.25-.058.549.549,0,0,0-.25.058.451.451,0,0,0-.184.169.489.489,0,0,0-.068.264.5.5,0,0,0,.068.267.44.44,0,0,0,.184.167.563.563,0,0,0,.25.056A.568.568,0,0,0,2208-875.619Z" transform="translate(-2206.947 877.553)" fill="#858585"/>
              <path id="Path_12595" data-name="Path 12595" d="M2218.74-875.688a1.024,1.024,0,0,1-.2-.617l0-.269,0-.278a1,1,0,0,1,.2-.614.71.71,0,0,1,.589-.236.714.714,0,0,1,.592.236,1,1,0,0,1,.2.614c0,.058,0,.151,0,.278s0,.212,0,.269a1.024,1.024,0,0,1-.2.617.708.708,0,0,1-.592.236A.7.7,0,0,1,2218.74-875.688Zm.951-.183a.755.755,0,0,0,.128-.45c0-.06,0-.147,0-.259s0-.2,0-.256a.748.748,0,0,0-.13-.448.427.427,0,0,0-.361-.161.422.422,0,0,0-.359.161.753.753,0,0,0-.128.448l0,.256,0,.259a.752.752,0,0,0,.128.45.423.423,0,0,0,.359.159A.427.427,0,0,0,2219.692-875.87Z" transform="translate(-2216.527 877.701)" fill="#858585"/>
            </g>
          </g>
          <g id="Group_162842" data-name="Group 162842" transform="translate(15.035 91.726)">
            <g id="Group_162841" data-name="Group 162841" transform="translate(0)">
              <path id="Path_12596" data-name="Path 12596" d="M2207.321-544.948a.7.7,0,0,1-.278-.273.763.763,0,0,1-.1-.375,1.015,1.015,0,0,1,.216-.575l.6-.831.017-.022a.1.1,0,0,1,.036-.03.113.113,0,0,1,.05-.011h.153a.056.056,0,0,1,.045.02.073.073,0,0,1,.017.048.079.079,0,0,1-.016.041l-.456.637a.806.806,0,0,1,.181-.019.78.78,0,0,1,.4.1.724.724,0,0,1,.269.269.73.73,0,0,1,.095.367.765.765,0,0,1-.095.373.709.709,0,0,1-.276.276.851.851,0,0,1-.428.1A.878.878,0,0,1,2207.321-544.948Zm.682-.214a.442.442,0,0,0,.184-.167.5.5,0,0,0,.069-.267.482.482,0,0,0-.07-.264.462.462,0,0,0-.186-.169.553.553,0,0,0-.25-.058.552.552,0,0,0-.25.058.452.452,0,0,0-.184.169.49.49,0,0,0-.068.264.5.5,0,0,0,.068.267.44.44,0,0,0,.184.167.563.563,0,0,0,.25.056A.568.568,0,0,0,2208-545.163Z" transform="translate(-2206.947 547.096)" fill="#858585"/>
              <path id="Path_12597" data-name="Path 12597" d="M2218.74-545.232a1.025,1.025,0,0,1-.2-.617l0-.269,0-.278a1,1,0,0,1,.2-.614.71.71,0,0,1,.589-.236.714.714,0,0,1,.592.236,1,1,0,0,1,.2.614c0,.058,0,.151,0,.278s0,.212,0,.269a1.025,1.025,0,0,1-.2.617.708.708,0,0,1-.592.236A.7.7,0,0,1,2218.74-545.232Zm.951-.183a.755.755,0,0,0,.128-.45c0-.06,0-.147,0-.259s0-.2,0-.256a.749.749,0,0,0-.13-.448.427.427,0,0,0-.361-.161.422.422,0,0,0-.359.161.755.755,0,0,0-.128.448l0,.256,0,.259a.752.752,0,0,0,.128.45.423.423,0,0,0,.359.159A.428.428,0,0,0,2219.692-545.414Z" transform="translate(-2216.527 547.245)" fill="#858585"/>
            </g>
          </g>
          <g id="Group_162844" data-name="Group 162844" transform="translate(14.951 80.237)">
            <g id="Group_162843" data-name="Group 162843" transform="translate(0 0)">
              <path id="Path_12598" data-name="Path 12598" d="M2207.568-611.1a.069.069,0,0,1-.021-.052v-.456h-1.015a.071.071,0,0,1-.052-.02.069.069,0,0,1-.02-.052v-.116a.168.168,0,0,1,.034-.094l.94-1.325a.1.1,0,0,1,.047-.039.167.167,0,0,1,.069-.014h.212a.071.071,0,0,1,.053.019.071.071,0,0,1,.019.053v1.325h.284a.07.07,0,0,1,.052.02.07.07,0,0,1,.021.052v.119a.07.07,0,0,1-.021.052.07.07,0,0,1-.052.02h-.284v.456a.069.069,0,0,1-.02.052.069.069,0,0,1-.052.02h-.144A.069.069,0,0,1,2207.568-611.1Zm-.782-.764h.765v-1.087Z" transform="translate(-2206.461 613.298)" fill="#858585"/>
              <path id="Path_12599" data-name="Path 12599" d="M2218.9-611.434a1.027,1.027,0,0,1-.2-.617l0-.269,0-.278a.994.994,0,0,1,.2-.614.71.71,0,0,1,.589-.236.714.714,0,0,1,.592.236,1,1,0,0,1,.2.614c0,.058,0,.151,0,.278s0,.212,0,.269a1.025,1.025,0,0,1-.2.617.709.709,0,0,1-.592.236A.7.7,0,0,1,2218.9-611.434Zm.952-.183a.758.758,0,0,0,.128-.45q0-.091,0-.259t0-.256a.749.749,0,0,0-.13-.448.427.427,0,0,0-.361-.161.422.422,0,0,0-.359.161.754.754,0,0,0-.128.448l0,.256,0,.259a.753.753,0,0,0,.128.45.424.424,0,0,0,.359.159A.428.428,0,0,0,2219.854-611.616Z" transform="translate(-2216.577 613.447)" fill="#858585"/>
            </g>
          </g>
          <g id="Group_162845" data-name="Group 162845" transform="translate(44.136 104.203)">
            <path id="Path_12600" data-name="Path 12600" d="M2370.9-473.183a.074.074,0,0,1-.019-.052v-2.04a.079.079,0,0,1,.019-.055.066.066,0,0,1,.05-.02h1.268a.076.076,0,0,1,.055.02.075.075,0,0,1,.02.055v.116a.071.071,0,0,1-.02.051.076.076,0,0,1-.055.02h-1.047v.74h.984a.074.074,0,0,1,.055.02.071.071,0,0,1,.021.052v.119a.068.068,0,0,1-.022.052.074.074,0,0,1-.053.02h-.984v.85a.067.067,0,0,1-.021.052.076.076,0,0,1-.054.02h-.146A.065.065,0,0,1,2370.9-473.183Z" transform="translate(-2370.877 475.349)" fill="#858585"/>
            <path id="Path_12601" data-name="Path 12601" d="M2381.93-473.183a.072.072,0,0,1-.019-.052v-2.04a.077.077,0,0,1,.019-.055.065.065,0,0,1,.05-.02h1.284a.074.074,0,0,1,.054.02.073.073,0,0,1,.02.055v.112a.064.064,0,0,1-.02.05.078.078,0,0,1-.054.019H2382.2v.7h1a.075.075,0,0,1,.055.02.076.076,0,0,1,.02.055v.106a.072.072,0,0,1-.02.052.075.075,0,0,1-.055.02h-1v.722h1.091a.074.074,0,0,1,.054.02.074.074,0,0,1,.02.055v.112a.067.067,0,0,1-.022.052.073.073,0,0,1-.053.02h-1.309A.064.064,0,0,1,2381.93-473.183Z" transform="translate(-2379.996 475.349)" fill="#858585"/>
            <path id="Path_12602" data-name="Path 12602" d="M2393.361-473.183a.073.073,0,0,1-.019-.052v-2.04a.078.078,0,0,1,.019-.055.065.065,0,0,1,.05-.02h.853a.7.7,0,0,1,.5.159.545.545,0,0,1,.169.415.5.5,0,0,1-.082.292.5.5,0,0,1-.19.17.567.567,0,0,1,.225.2.559.559,0,0,1,.091.316.65.65,0,0,1-.079.319.578.578,0,0,1-.236.228.774.774,0,0,1-.372.084h-.878A.064.064,0,0,1,2393.361-473.183Zm.856-1.239a.458.458,0,0,0,.309-.092.322.322,0,0,0,.106-.258.3.3,0,0,0-.1-.247.488.488,0,0,0-.311-.084h-.581v.681Zm.032,1.012a.439.439,0,0,0,.314-.108.363.363,0,0,0,.114-.276.362.362,0,0,0-.114-.278.443.443,0,0,0-.314-.106h-.613v.769Z" transform="translate(-2389.443 475.349)" fill="#858585"/>
          </g>
          <g id="Group_162846" data-name="Group 162846" transform="translate(63.411 104.203)">
            <path id="Path_12603" data-name="Path 12603" d="M2480.3-473.183a.07.07,0,0,1-.021-.052v-2.04a.076.076,0,0,1,.019-.055.068.068,0,0,1,.053-.02h.146a.079.079,0,0,1,.078.047l.665,1.278.672-1.278a.08.08,0,0,1,.075-.047h.147a.069.069,0,0,1,.053.02.078.078,0,0,1,.019.055v2.04a.069.069,0,0,1-.021.052.069.069,0,0,1-.051.02h-.144a.063.063,0,0,1-.05-.02.071.071,0,0,1-.019-.052v-1.553l-.534,1.034a.1.1,0,0,1-.1.066h-.094a.108.108,0,0,1-.1-.066l-.531-1.034v1.553a.07.07,0,0,1-.02.052.069.069,0,0,1-.052.02h-.14A.068.068,0,0,1,2480.3-473.183Z" transform="translate(-2480.275 475.349)" fill="#858585"/>
            <path id="Path_12604" data-name="Path 12604" d="M2493.884-473.181a.058.058,0,0,1-.019-.044l.006-.034.775-2.021a.1.1,0,0,1,.1-.069h.2a.1.1,0,0,1,.1.069l.775,2.021.006.034a.059.059,0,0,1-.02.044.066.066,0,0,1-.045.019h-.147a.075.075,0,0,1-.051-.017.084.084,0,0,1-.027-.036l-.175-.45h-1.034l-.172.45a.082.082,0,0,1-.078.053h-.15A.059.059,0,0,1,2493.884-473.181Zm.534-.743h.856l-.427-1.122Z" transform="translate(-2491.506 475.349)" fill="#858585"/>
            <path id="Path_12605" data-name="Path 12605" d="M2507.671-473.183a.073.073,0,0,1-.019-.052v-2.04a.078.078,0,0,1,.019-.055.065.065,0,0,1,.05-.02h.762a.848.848,0,0,1,.558.167.6.6,0,0,1,.2.486.617.617,0,0,1-.119.39.612.612,0,0,1-.331.212l.481.834a.074.074,0,0,1,.01.034.06.06,0,0,1-.019.044.06.06,0,0,1-.044.019h-.137a.112.112,0,0,1-.073-.022.21.21,0,0,1-.048-.063l-.459-.8h-.556v.812a.067.067,0,0,1-.022.052.075.075,0,0,1-.053.02h-.15A.064.064,0,0,1,2507.671-473.183Zm.8-1.12q.472,0,.472-.4t-.472-.4h-.525v.794Z" transform="translate(-2502.9 475.349)" fill="#858585"/>
          </g>
          <g id="Group_162848" data-name="Group 162848" transform="translate(83.118 104.203)">
            <g id="Group_162847" data-name="Group 162847" transform="translate(0 0)">
              <path id="Path_12606" data-name="Path 12606" d="M2592.173-473.181a.061.061,0,0,1-.019-.044l.006-.034.775-2.021a.1.1,0,0,1,.1-.069h.2a.1.1,0,0,1,.1.069l.775,2.021.006.034a.057.057,0,0,1-.021.044.065.065,0,0,1-.045.019h-.147a.075.075,0,0,1-.051-.017.086.086,0,0,1-.027-.036l-.175-.45h-1.033l-.172.45a.082.082,0,0,1-.078.053h-.15A.06.06,0,0,1,2592.173-473.181Zm.534-.743h.856l-.428-1.122Z" transform="translate(-2592.154 475.349)" fill="#858585"/>
              <path id="Path_12607" data-name="Path 12607" d="M2605.96-473.183a.073.073,0,0,1-.019-.052v-2.04a.078.078,0,0,1,.019-.055.065.065,0,0,1,.05-.02h.79a.832.832,0,0,1,.554.17.612.612,0,0,1,.2.5.606.606,0,0,1-.2.494.837.837,0,0,1-.554.169h-.562v.787a.069.069,0,0,1-.02.052.07.07,0,0,1-.052.02h-.156A.064.064,0,0,1,2605.96-473.183Zm.825-1.092q.471,0,.471-.409a.391.391,0,0,0-.117-.306.513.513,0,0,0-.354-.106h-.547v.822Z" transform="translate(-2603.548 475.349)" fill="#858585"/>
              <path id="Path_12608" data-name="Path 12608" d="M2618.039-473.183a.074.074,0,0,1-.019-.052v-2.04a.079.079,0,0,1,.019-.055.065.065,0,0,1,.05-.02h.762a.848.848,0,0,1,.558.167.6.6,0,0,1,.2.486.62.62,0,0,1-.119.39.614.614,0,0,1-.331.212l.481.834a.074.074,0,0,1,.01.034.061.061,0,0,1-.019.044.06.06,0,0,1-.044.019h-.137a.113.113,0,0,1-.074-.022.21.21,0,0,1-.048-.063l-.459-.8h-.556v.812a.067.067,0,0,1-.022.052.073.073,0,0,1-.053.02h-.15A.064.064,0,0,1,2618.039-473.183Zm.8-1.12q.472,0,.472-.4t-.472-.4h-.524v.794Z" transform="translate(-2613.531 475.349)" fill="#858585"/>
            </g>
          </g>
          <g id="Group_162849" data-name="Group 162849" transform="translate(102.951 104.203)">
            <path id="Path_12609" data-name="Path 12609" d="M2704.758-473.183a.071.071,0,0,1-.02-.052v-2.04a.078.078,0,0,1,.019-.055.069.069,0,0,1,.053-.02h.147a.079.079,0,0,1,.078.047l.665,1.278.672-1.278a.081.081,0,0,1,.075-.047h.147a.069.069,0,0,1,.053.02.077.077,0,0,1,.018.055v2.04a.071.071,0,0,1-.02.052.07.07,0,0,1-.052.02h-.144a.065.065,0,0,1-.05-.02.074.074,0,0,1-.019-.052v-1.553l-.534,1.034a.1.1,0,0,1-.1.066h-.094a.108.108,0,0,1-.1-.066l-.531-1.034v1.553a.07.07,0,0,1-.021.052.07.07,0,0,1-.052.02h-.141A.07.07,0,0,1,2704.758-473.183Z" transform="translate(-2704.738 475.349)" fill="#858585"/>
            <path id="Path_12610" data-name="Path 12610" d="M2718.346-473.181a.061.061,0,0,1-.018-.044l.006-.034.774-2.021a.1.1,0,0,1,.1-.069h.2a.1.1,0,0,1,.1.069l.775,2.021.006.034a.057.057,0,0,1-.02.044.066.066,0,0,1-.046.019h-.146a.075.075,0,0,1-.052-.017.082.082,0,0,1-.027-.036l-.175-.45h-1.034l-.172.45a.082.082,0,0,1-.078.053h-.15A.062.062,0,0,1,2718.346-473.181Zm.535-.743h.856l-.428-1.122Z" transform="translate(-2715.969 475.349)" fill="#858585"/>
            <path id="Path_12611" data-name="Path 12611" d="M2730.6-473.183a.07.07,0,0,1-.02-.052v-.74l-.753-1.271a.094.094,0,0,1-.009-.041.062.062,0,0,1,.018-.044.06.06,0,0,1,.044-.019h.15a.084.084,0,0,1,.081.053l.618,1.021.615-1.021a.093.093,0,0,1,.082-.053h.15a.065.065,0,0,1,.045.019.059.059,0,0,1,.02.044.1.1,0,0,1-.012.041l-.753,1.271v.74a.07.07,0,0,1-.02.052.073.073,0,0,1-.055.02h-.15A.069.069,0,0,1,2730.6-473.183Z" transform="translate(-2725.461 475.349)" fill="#858585"/>
          </g>
          <g id="Group_162850" data-name="Group 162850" transform="translate(122.447 104.203)">
            <path id="Path_12612" data-name="Path 12612" d="M2815.65-473.3a.606.606,0,0,1-.236-.492.067.067,0,0,1,.019-.048.061.061,0,0,1,.047-.02h.159a.072.072,0,0,1,.078.072.387.387,0,0,0,.156.3.582.582,0,0,0,.344.1.45.45,0,0,0,.367-.156.64.64,0,0,0,.13-.422v-1.118H2815.6a.07.07,0,0,1-.052-.02.07.07,0,0,1-.02-.051v-.119a.071.071,0,0,1,.02-.052.07.07,0,0,1,.052-.02h1.34a.073.073,0,0,1,.055.02.073.073,0,0,1,.021.055v1.312a.951.951,0,0,1-.1.437.682.682,0,0,1-.276.291.851.851,0,0,1-.428.1A.915.915,0,0,1,2815.65-473.3Z" transform="translate(-2815.414 475.349)" fill="#858585"/>
            <path id="Path_12613" data-name="Path 12613" d="M2828.323-473.348a.889.889,0,0,1-.219-.658v-1.268a.079.079,0,0,1,.019-.055.065.065,0,0,1,.05-.02h.15a.074.074,0,0,1,.054.02.073.073,0,0,1,.02.055V-474a.641.641,0,0,0,.142.456.531.531,0,0,0,.4.15.524.524,0,0,0,.4-.152.642.642,0,0,0,.142-.455v-1.275a.079.079,0,0,1,.019-.055.069.069,0,0,1,.053-.02h.15a.068.068,0,0,1,.051.02.073.073,0,0,1,.021.055v1.268a.894.894,0,0,1-.217.658.841.841,0,0,1-.621.217A.843.843,0,0,1,2828.323-473.348Z" transform="translate(-2825.902 475.349)" fill="#858585"/>
            <path id="Path_12614" data-name="Path 12614" d="M2841.371-473.183a.073.073,0,0,1-.019-.052v-2.04a.078.078,0,0,1,.019-.055.065.065,0,0,1,.05-.02h.138a.075.075,0,0,1,.047.012.224.224,0,0,1,.031.031l1.046,1.612v-1.581a.073.073,0,0,1,.021-.055.07.07,0,0,1,.052-.02h.14a.075.075,0,0,1,.055.02.074.074,0,0,1,.02.055v2.037a.076.076,0,0,1-.02.053.068.068,0,0,1-.052.022h-.14a.077.077,0,0,1-.075-.044l-1.046-1.6v1.568a.069.069,0,0,1-.021.052.068.068,0,0,1-.051.02h-.144A.064.064,0,0,1,2841.371-473.183Z" transform="translate(-2836.851 475.349)" fill="#858585"/>
          </g>
          <g id="Group_162852" data-name="Group 162852" transform="translate(142.377 104.203)">
            <g id="Group_162851" data-name="Group 162851" transform="translate(0 0)">
              <path id="Path_12615" data-name="Path 12615" d="M2928.807-473.3a.608.608,0,0,1-.236-.492.068.068,0,0,1,.019-.048.061.061,0,0,1,.047-.02h.159a.072.072,0,0,1,.078.072.388.388,0,0,0,.156.3.582.582,0,0,0,.344.1.451.451,0,0,0,.367-.156.641.641,0,0,0,.129-.422v-1.118h-1.115a.071.071,0,0,1-.052-.02.071.071,0,0,1-.02-.051v-.119a.071.071,0,0,1,.02-.052.071.071,0,0,1,.052-.02h1.34a.075.075,0,0,1,.055.02.075.075,0,0,1,.02.055v1.312a.957.957,0,0,1-.095.437.683.683,0,0,1-.277.291.85.85,0,0,1-.427.1A.917.917,0,0,1,2928.807-473.3Z" transform="translate(-2928.571 475.349)" fill="#858585"/>
              <path id="Path_12616" data-name="Path 12616" d="M2941.48-473.348a.89.89,0,0,1-.219-.658v-1.268a.079.079,0,0,1,.019-.055.065.065,0,0,1,.05-.02h.15a.074.074,0,0,1,.055.02.074.074,0,0,1,.02.055V-474a.642.642,0,0,0,.142.456.531.531,0,0,0,.4.15.523.523,0,0,0,.4-.152.642.642,0,0,0,.142-.455v-1.275a.077.077,0,0,1,.019-.055.068.068,0,0,1,.053-.02h.15a.071.071,0,0,1,.052.02.074.074,0,0,1,.021.055v1.268a.894.894,0,0,1-.217.658.84.84,0,0,1-.62.217A.844.844,0,0,1,2941.48-473.348Z" transform="translate(-2939.059 475.349)" fill="#858585"/>
              <path id="Path_12617" data-name="Path 12617" d="M2954.529-473.183a.072.072,0,0,1-.019-.052v-2.043a.073.073,0,0,1,.019-.052.064.064,0,0,1,.05-.02h.156a.065.065,0,0,1,.05.02.073.073,0,0,1,.019.052v1.853h1.043a.073.073,0,0,1,.055.02.07.07,0,0,1,.021.052v.119a.067.067,0,0,1-.022.052.075.075,0,0,1-.053.02h-1.268A.063.063,0,0,1,2954.529-473.183Z" transform="translate(-2950.008 475.349)" fill="#858585"/>
            </g>
          </g>
          <g id="Group_162854" data-name="Group 162854" transform="translate(161.962 104.172)">
            <g id="Group_162853" data-name="Group 162853" transform="translate(0 0)">
              <path id="Path_12618" data-name="Path 12618" d="M3038.481-473.181a.06.06,0,0,1-.019-.044l.006-.034.775-2.021a.1.1,0,0,1,.1-.069h.2a.1.1,0,0,1,.1.069l.774,2.021.006.034a.058.058,0,0,1-.02.044.066.066,0,0,1-.045.019h-.147a.076.076,0,0,1-.052-.017.083.083,0,0,1-.026-.036l-.175-.45h-1.034l-.171.45a.082.082,0,0,1-.078.053h-.15A.062.062,0,0,1,3038.481-473.181Zm.534-.743h.856l-.428-1.122Z" transform="translate(-3038.463 475.38)" fill="#858585"/>
              <path id="Path_12619" data-name="Path 12619" d="M3052.127-473.348a.891.891,0,0,1-.219-.658v-1.268a.078.078,0,0,1,.019-.055.065.065,0,0,1,.05-.02h.149a.073.073,0,0,1,.055.02.074.074,0,0,1,.021.055V-474a.643.643,0,0,0,.142.456.531.531,0,0,0,.4.15.523.523,0,0,0,.4-.152.643.643,0,0,0,.143-.455v-1.275a.074.074,0,0,1,.019-.055.068.068,0,0,1,.053-.02h.15a.071.071,0,0,1,.052.02.076.076,0,0,1,.02.055v1.268a.894.894,0,0,1-.217.658.839.839,0,0,1-.62.217A.845.845,0,0,1,3052.127-473.348Z" transform="translate(-3049.575 475.38)" fill="#858585"/>
              <path id="Path_12620" data-name="Path 12620" d="M3064.916-473.5a.876.876,0,0,1-.241-.609c0-.062,0-.16,0-.294s0-.233,0-.294a.854.854,0,0,1,.239-.6.863.863,0,0,1,.633-.223.994.994,0,0,1,.466.1.787.787,0,0,1,.287.239.512.512,0,0,1,.1.258v.006a.053.053,0,0,1-.021.042.068.068,0,0,1-.045.017h-.175a.061.061,0,0,1-.042-.013.118.118,0,0,1-.027-.047.511.511,0,0,0-.184-.247.6.6,0,0,0-.363-.1.571.571,0,0,0-.412.144.618.618,0,0,0-.159.444c0,.06,0,.153,0,.278s0,.216,0,.278a.622.622,0,0,0,.159.447.571.571,0,0,0,.412.144.606.606,0,0,0,.425-.145.56.56,0,0,0,.16-.436v-.134h-.478a.069.069,0,0,1-.052-.022.075.075,0,0,1-.02-.053v-.094a.075.075,0,0,1,.02-.053.068.068,0,0,1,.052-.022h.7a.075.075,0,0,1,.055.02.075.075,0,0,1,.02.055v.3a.921.921,0,0,1-.1.445.716.716,0,0,1-.3.3,1,1,0,0,1-.472.1A.852.852,0,0,1,3064.916-473.5Z" transform="translate(-3060.123 475.529)" fill="#858585"/>
            </g>
          </g>
          <g id="Group_162856" data-name="Group 162856" transform="translate(17.363 14.265)" opacity="0.8">
            <g id="Group_162855" data-name="Group 162855" transform="translate(0 0)">
              <path id="Path_12621" data-name="Path 12621" d="M2220.4-987.962a.143.143,0,0,1-.037-.1v-3.972a.143.143,0,0,1,.037-.1.126.126,0,0,1,.1-.04h.3a.14.14,0,0,1,.1.036.141.141,0,0,1,.036.1v3.972a.135.135,0,0,1-.039.1.136.136,0,0,1-.1.039h-.3A.126.126,0,0,1,2220.4-987.962Z" transform="translate(-2220.361 992.418)"/>
              <path id="Path_12622" data-name="Path 12622" d="M2230.479-983.044a.138.138,0,0,1-.039-.1v-2.879a.139.139,0,0,1,.039-.1.137.137,0,0,1,.1-.04h.262a.141.141,0,0,1,.1.036.141.141,0,0,1,.037.1v.267a1.3,1.3,0,0,1,.422-.346,1.319,1.319,0,0,1,.6-.121,1.129,1.129,0,0,1,.9.373,1.458,1.458,0,0,1,.322.987v1.719a.133.133,0,0,1-.04.1.134.134,0,0,1-.1.039h-.28a.137.137,0,0,1-.1-.039.136.136,0,0,1-.039-.1v-1.683a1,1,0,0,0-.213-.68.763.763,0,0,0-.607-.243.809.809,0,0,0-.62.246.95.95,0,0,0-.231.677v1.683a.135.135,0,0,1-.04.1.135.135,0,0,1-.1.039h-.28A.137.137,0,0,1,2230.479-983.044Z" transform="translate(-2228.69 987.5)"/>
              <path id="Path_12623" data-name="Path 12623" d="M2251.056-989.119a.136.136,0,0,1-.039-.1v-2.551h-.522a.143.143,0,0,1-.1-.036.127.127,0,0,1-.04-.1v-.195a.137.137,0,0,1,.04-.1.137.137,0,0,1,.1-.039h.522v-.3a1.11,1.11,0,0,1,.24-.762,1,1,0,0,1,.786-.27h.358a.137.137,0,0,1,.1.039.137.137,0,0,1,.04.1v.194a.127.127,0,0,1-.04.1.143.143,0,0,1-.1.036h-.346a.458.458,0,0,0-.389.146.751.751,0,0,0-.109.45v.273h.784a.137.137,0,0,1,.1.039.137.137,0,0,1,.039.1v.195a.127.127,0,0,1-.039.1.144.144,0,0,1-.1.036h-.784v2.551a.136.136,0,0,1-.039.1.136.136,0,0,1-.1.039h-.261A.137.137,0,0,1,2251.056-989.119Z" transform="translate(-2245.149 993.574)"/>
              <path id="Path_12624" data-name="Path 12624" d="M2266.007-983.32a1.472,1.472,0,0,1-.385-1l-.006-.261.006-.261a1.459,1.459,0,0,1,.391-1,1.364,1.364,0,0,1,1.024-.377,1.363,1.363,0,0,1,1.023.377,1.46,1.46,0,0,1,.392,1c.008.089.012.176.012.261s0,.172-.012.261a1.476,1.476,0,0,1-.386,1,1.36,1.36,0,0,1-1.029.377A1.36,1.36,0,0,1,2266.007-983.32Zm1.646-.325a1.072,1.072,0,0,0,.246-.708c0-.04.006-.117.006-.231s0-.19-.006-.231a1.071,1.071,0,0,0-.246-.708.8.8,0,0,0-.616-.246.8.8,0,0,0-.617.246,1.07,1.07,0,0,0-.246.708l-.006.231.006.231a1.07,1.07,0,0,0,.246.708.8.8,0,0,0,.617.246A.8.8,0,0,0,2267.653-983.646Z" transform="translate(-2257.761 987.5)"/>
              <path id="Path_12625" data-name="Path 12625" d="M2287.269-981.838a1.083,1.083,0,0,1-.428-.389.793.793,0,0,1-.125-.376.123.123,0,0,1,.043-.094.138.138,0,0,1,.1-.039h.268a.148.148,0,0,1,.091.027.2.2,0,0,1,.061.1.727.727,0,0,0,.771.486.993.993,0,0,0,.674-.194.889.889,0,0,0,.219-.687v-.419a1.18,1.18,0,0,1-.984.449,1.139,1.139,0,0,1-.962-.413,1.744,1.744,0,0,1-.338-1.045l-.006-.17.006-.164a1.749,1.749,0,0,1,.338-1.042,1.136,1.136,0,0,1,.962-.416,1.185,1.185,0,0,1,1,.467v-.261a.145.145,0,0,1,.04-.1.13.13,0,0,1,.1-.043h.261a.132.132,0,0,1,.1.043.147.147,0,0,1,.039.1v2.946a1.245,1.245,0,0,1-1.415,1.4A1.653,1.653,0,0,1,2287.269-981.838Zm1.437-1.886a1.139,1.139,0,0,0,.234-.665c0-.036.006-.107.006-.213s0-.17-.006-.207a1.139,1.139,0,0,0-.234-.665.763.763,0,0,0-.641-.276.725.725,0,0,0-.635.276,1.3,1.3,0,0,0-.216.714l-.006.158.006.164a1.3,1.3,0,0,0,.216.714.725.725,0,0,0,.635.276A.763.763,0,0,0,2288.706-983.725Z" transform="translate(-2275.146 987.5)"/>
              <path id="Path_12626" data-name="Path 12626" d="M2309.4-982.756a.135.135,0,0,1-.039-.1v-2.873a.147.147,0,0,1,.039-.1.131.131,0,0,1,.1-.043h.255a.143.143,0,0,1,.106.04.145.145,0,0,1,.04.106v.267a.906.906,0,0,1,.844-.413h.237a.14.14,0,0,1,.1.036.141.141,0,0,1,.037.1v.225a.142.142,0,0,1-.037.1.133.133,0,0,1-.1.04h-.346a.7.7,0,0,0-.526.194.72.72,0,0,0-.191.529v1.792a.131.131,0,0,1-.043.1.146.146,0,0,1-.1.039h-.273A.136.136,0,0,1,2309.4-982.756Z" transform="translate(-2293.917 987.211)"/>
              <path id="Path_12627" data-name="Path 12627" d="M2322.549-983.065a1.028,1.028,0,0,1-.4-.331.783.783,0,0,1-.149-.465.794.794,0,0,1,.328-.656,1.891,1.891,0,0,1,.893-.34l.911-.128v-.176q0-.626-.723-.626a.806.806,0,0,0-.45.112.719.719,0,0,0-.249.264.2.2,0,0,1-.051.082.122.122,0,0,1-.076.021h-.237a.13.13,0,0,1-.094-.039.129.129,0,0,1-.039-.094.592.592,0,0,1,.13-.325,1.061,1.061,0,0,1,.4-.322,1.482,1.482,0,0,1,.668-.137,1.286,1.286,0,0,1,.975.316,1.113,1.113,0,0,1,.294.79v1.974a.134.134,0,0,1-.04.1.135.135,0,0,1-.1.039h-.267a.125.125,0,0,1-.1-.039.141.141,0,0,1-.037-.1v-.267a1.026,1.026,0,0,1-.389.334,1.413,1.413,0,0,1-.656.134A1.25,1.25,0,0,1,2322.549-983.065Zm1.327-.583a1.044,1.044,0,0,0,.255-.759v-.17l-.71.1a1.657,1.657,0,0,0-.662.207.426.426,0,0,0-.225.364.43.43,0,0,0,.2.383.857.857,0,0,0,.483.134A.878.878,0,0,0,2323.876-983.648Z" transform="translate(-2304.36 987.5)"/>
              <path id="Path_12628" data-name="Path 12628" d="M2343.668-981.887a.133.133,0,0,1-.039-.1v-4.033a.134.134,0,0,1,.039-.1.143.143,0,0,1,.1-.036h.255a.141.141,0,0,1,.1.036.14.14,0,0,1,.037.1v.267a1.18,1.18,0,0,1,1-.467,1.144,1.144,0,0,1,.957.4,1.7,1.7,0,0,1,.337,1.029c0,.045.006.114.006.206s0,.162-.006.207a1.7,1.7,0,0,1-.337,1.027,1.14,1.14,0,0,1-.957.407,1.136,1.136,0,0,1-.984-.462v1.415a.137.137,0,0,1-.039.1.137.137,0,0,1-.1.039h-.273A.141.141,0,0,1,2343.668-981.887Zm2.02-1.8a1.277,1.277,0,0,0,.219-.717q.006-.061.006-.176,0-1.166-.862-1.166a.755.755,0,0,0-.641.282,1.127,1.127,0,0,0-.228.665c0,.044-.006.124-.006.237s0,.192.006.237a1.035,1.035,0,0,0,.234.641.774.774,0,0,0,.635.27A.738.738,0,0,0,2345.688-983.691Z" transform="translate(-2322.236 987.5)"/>
              <path id="Path_12629" data-name="Path 12629" d="M2365.508-988.252a.136.136,0,0,1-.04-.1v-4.033a.135.135,0,0,1,.04-.1.144.144,0,0,1,.1-.036h.28a.142.142,0,0,1,.1.036.143.143,0,0,1,.036.1v1.415a1.2,1.2,0,0,1,.416-.343,1.33,1.33,0,0,1,.592-.118,1.14,1.14,0,0,1,.908.373,1.449,1.449,0,0,1,.325.987v1.719a.136.136,0,0,1-.04.1.135.135,0,0,1-.1.039h-.285a.136.136,0,0,1-.1-.039.136.136,0,0,1-.039-.1v-1.683a1,1,0,0,0-.213-.68.771.771,0,0,0-.614-.243.809.809,0,0,0-.619.246.949.949,0,0,0-.231.677v1.683a.135.135,0,0,1-.04.1.136.136,0,0,1-.1.039h-.28A.137.137,0,0,1,2365.508-988.252Z" transform="translate(-2340.285 992.707)"/>
              <path id="Path_12630" data-name="Path 12630" d="M2387.488-992.208a.134.134,0,0,1-.04-.1v-.316a.145.145,0,0,1,.04-.1.13.13,0,0,1,.1-.043h.358a.141.141,0,0,1,.1.043.143.143,0,0,1,.042.1v.316a.132.132,0,0,1-.042.1.146.146,0,0,1-.1.04h-.358A.134.134,0,0,1,2387.488-992.208Zm.048,3.754a.135.135,0,0,1-.039-.1v-2.879a.135.135,0,0,1,.039-.1.135.135,0,0,1,.1-.04h.267a.134.134,0,0,1,.1.04.134.134,0,0,1,.04.1v2.879a.134.134,0,0,1-.04.1.134.134,0,0,1-.1.039h-.267A.135.135,0,0,1,2387.536-988.454Z" transform="translate(-2358.45 992.909)"/>
              <path id="Path_12631" data-name="Path 12631" d="M2396.762-983.311a1.46,1.46,0,0,1-.383-1.03l-.006-.243.006-.243a1.46,1.46,0,0,1,.383-1.029,1.364,1.364,0,0,1,1.014-.367,1.6,1.6,0,0,1,.738.155,1.139,1.139,0,0,1,.449.386.94.94,0,0,1,.161.462.111.111,0,0,1-.04.1.143.143,0,0,1-.1.042h-.268a.132.132,0,0,1-.091-.027.281.281,0,0,1-.061-.1.816.816,0,0,0-.3-.422.869.869,0,0,0-.483-.125.8.8,0,0,0-.607.237,1.08,1.08,0,0,0-.243.723l-.006.213.006.213a1.081,1.081,0,0,0,.243.723.8.8,0,0,0,.607.237.864.864,0,0,0,.486-.124.824.824,0,0,0,.3-.422.282.282,0,0,1,.061-.1.133.133,0,0,1,.091-.028h.268a.143.143,0,0,1,.1.043.112.112,0,0,1,.04.1.933.933,0,0,1-.161.456,1.158,1.158,0,0,1-.449.389,1.572,1.572,0,0,1-.738.158A1.364,1.364,0,0,1,2396.762-983.311Z" transform="translate(-2365.826 987.5)"/>
              <path id="Path_12632" data-name="Path 12632" d="M2426.721-983.311a1.461,1.461,0,0,1-.383-1.03l-.006-.243.006-.243a1.461,1.461,0,0,1,.383-1.029,1.366,1.366,0,0,1,1.014-.367,1.6,1.6,0,0,1,.738.155,1.141,1.141,0,0,1,.45.386.95.95,0,0,1,.161.462.111.111,0,0,1-.04.1.144.144,0,0,1-.1.042h-.268a.133.133,0,0,1-.091-.027.278.278,0,0,1-.061-.1.818.818,0,0,0-.3-.422.869.869,0,0,0-.483-.125.8.8,0,0,0-.607.237,1.079,1.079,0,0,0-.243.723l-.006.213.006.213a1.079,1.079,0,0,0,.243.723.8.8,0,0,0,.607.237.868.868,0,0,0,.486-.124.829.829,0,0,0,.3-.422.279.279,0,0,1,.061-.1.134.134,0,0,1,.091-.028h.268a.145.145,0,0,1,.1.043.112.112,0,0,1,.04.1.942.942,0,0,1-.161.456,1.16,1.16,0,0,1-.45.389,1.571,1.571,0,0,1-.738.158A1.366,1.366,0,0,1,2426.721-983.311Z" transform="translate(-2390.586 987.5)"/>
              <path id="Path_12633" data-name="Path 12633" d="M2447.511-988.252a.135.135,0,0,1-.039-.1v-4.033a.134.134,0,0,1,.039-.1.144.144,0,0,1,.1-.036h.28a.14.14,0,0,1,.1.036.14.14,0,0,1,.036.1v1.415a1.205,1.205,0,0,1,.416-.343,1.331,1.331,0,0,1,.592-.118,1.14,1.14,0,0,1,.908.373,1.451,1.451,0,0,1,.325.987v1.719a.136.136,0,0,1-.04.1.135.135,0,0,1-.1.039h-.285a.136.136,0,0,1-.1-.039.135.135,0,0,1-.039-.1v-1.683a1,1,0,0,0-.213-.68.771.771,0,0,0-.614-.243.807.807,0,0,0-.619.246.949.949,0,0,0-.231.677v1.683a.136.136,0,0,1-.039.1.136.136,0,0,1-.1.039h-.28A.136.136,0,0,1,2447.511-988.252Z" transform="translate(-2408.057 992.707)"/>
              <path id="Path_12634" data-name="Path 12634" d="M2468.987-983.065a1.021,1.021,0,0,1-.4-.331.783.783,0,0,1-.149-.465.794.794,0,0,1,.328-.656,1.892,1.892,0,0,1,.893-.34l.911-.128v-.176q0-.626-.723-.626a.806.806,0,0,0-.45.112.718.718,0,0,0-.249.264.19.19,0,0,1-.052.082.119.119,0,0,1-.076.021h-.237a.129.129,0,0,1-.094-.039.13.13,0,0,1-.039-.094.593.593,0,0,1,.131-.325,1.055,1.055,0,0,1,.4-.322,1.481,1.481,0,0,1,.668-.137,1.287,1.287,0,0,1,.975.316,1.115,1.115,0,0,1,.294.79v1.974a.136.136,0,0,1-.039.1.136.136,0,0,1-.1.039h-.267a.125.125,0,0,1-.1-.039.141.141,0,0,1-.036-.1v-.267a1.025,1.025,0,0,1-.389.334,1.412,1.412,0,0,1-.656.134A1.248,1.248,0,0,1,2468.987-983.065Zm1.327-.583a1.044,1.044,0,0,0,.255-.759v-.17l-.711.1a1.654,1.654,0,0,0-.662.207.425.425,0,0,0-.225.364.43.43,0,0,0,.2.383.858.858,0,0,0,.483.134A.876.876,0,0,0,2470.313-983.648Z" transform="translate(-2425.384 987.5)"/>
              <path id="Path_12635" data-name="Path 12635" d="M2490.07-982.756a.135.135,0,0,1-.04-.1v-2.873a.146.146,0,0,1,.04-.1.13.13,0,0,1,.1-.043h.255a.144.144,0,0,1,.106.04.145.145,0,0,1,.04.106v.267a.905.905,0,0,1,.844-.413h.237a.141.141,0,0,1,.1.036.141.141,0,0,1,.037.1v.225a.142.142,0,0,1-.037.1.134.134,0,0,1-.1.04h-.346a.7.7,0,0,0-.525.194.722.722,0,0,0-.191.529v1.792a.131.131,0,0,1-.042.1.147.147,0,0,1-.1.039h-.273A.134.134,0,0,1,2490.07-982.756Z" transform="translate(-2443.229 987.211)"/>
              <path id="Path_12636" data-name="Path 12636" d="M2502.893-989.275V-990.9h-.48a.131.131,0,0,1-.1-.036.132.132,0,0,1-.037-.1v-.195a.142.142,0,0,1,.037-.1.125.125,0,0,1,.1-.04h.48v-1.014a.145.145,0,0,1,.036-.1.127.127,0,0,1,.1-.039h.267a.136.136,0,0,1,.1.039.137.137,0,0,1,.04.1v1.014h.753a.137.137,0,0,1,.1.04.138.138,0,0,1,.039.1v.195a.128.128,0,0,1-.039.1.145.145,0,0,1-.1.036h-.753v1.585a.885.885,0,0,0,.1.468.375.375,0,0,0,.343.158h.371a.127.127,0,0,1,.1.039.144.144,0,0,1,.036.1v.2a.143.143,0,0,1-.036.1.126.126,0,0,1-.1.039h-.413Q2502.893-988.212,2502.893-989.275Z" transform="translate(-2453.353 992.707)"/>
            </g>
          </g>
          <rect id="Rectangle_148348" data-name="Rectangle 148348" width="3.037" height="6.385" rx="1.519" transform="translate(25.291 56.246)" fill="#ff931f"/>
          <rect id="Rectangle_148349" data-name="Rectangle 148349" width="3.037" height="3.037" rx="1.519" transform="translate(25.291 64.599)" fill="#c91010"/>
          <rect id="Rectangle_148350" data-name="Rectangle 148350" width="3.037" height="17.2" rx="1.519" transform="translate(45.342 45.431)" fill="#ff931f"/>
          <rect id="Rectangle_148351" data-name="Rectangle 148351" width="3.037" height="10.216" rx="1.519" transform="translate(45.342 64.599)" fill="#c91010"/>
          <rect id="Rectangle_148352" data-name="Rectangle 148352" width="3.037" height="12.05" rx="1.519" transform="translate(65.02 50.582)" fill="#ff931f"/>
          <rect id="Rectangle_148353" data-name="Rectangle 148353" width="3.037" height="15.875" rx="1.519" transform="translate(65.02 64.599)" fill="#c91010"/>
          <rect id="Rectangle_148354" data-name="Rectangle 148354" width="3.037" height="17.829" rx="1.519" transform="translate(84.698 44.802)" fill="#ff931f"/>
          <rect id="Rectangle_148355" data-name="Rectangle 148355" width="3.037" height="24.1" rx="1.519" transform="translate(84.698 64.599)" fill="#c91010"/>
          <rect id="Rectangle_148356" data-name="Rectangle 148356" width="3.037" height="24.1" rx="1.519" transform="translate(104.376 38.532)" fill="#ff931f"/>
          <rect id="Rectangle_148357" data-name="Rectangle 148357" width="3.037" height="8.832" rx="1.519" transform="translate(104.376 64.599)" fill="#c91010"/>
          <rect id="Rectangle_148358" data-name="Rectangle 148358" width="3.037" height="21.225" rx="1.519" transform="translate(124.055 41.407)" fill="#ff931f"/>
          <rect id="Rectangle_148359" data-name="Rectangle 148359" width="3.037" height="15.875" rx="1.519" transform="translate(124.055 64.599)" fill="#c91010"/>
          <rect id="Rectangle_148360" data-name="Rectangle 148360" width="3.037" height="30.783" rx="1.519" transform="translate(143.733 31.849)" fill="#ff931f"/>
          <rect id="Rectangle_148361" data-name="Rectangle 148361" width="3.037" height="28.074" rx="1.519" transform="translate(143.733 64.599)" fill="#c91010"/>
          <rect id="Rectangle_148362" data-name="Rectangle 148362" width="3.037" height="24.1" rx="1.519" transform="translate(163.652 38.532)" fill="#ff931f"/>
          <rect id="Rectangle_148363" data-name="Rectangle 148363" width="3.037" height="15.875" rx="1.519" transform="translate(163.652 64.599)" fill="#c91010"/>
        </g>
      </g>
    </g>
  </g>
</svg>
