<svg xmlns="http://www.w3.org/2000/svg" xmlns:xlink="http://www.w3.org/1999/xlink" width="60" height="60" viewBox="0 0 60 60">
  <defs>
    <clipPath id="clip-Artboard_34">
      <rect width="60" height="60"/>
    </clipPath>
  </defs>
  <g id="Artboard_34" data-name="Artboard – 34" clip-path="url(#clip-Artboard_34)">
    <rect width="60" height="60" fill="#fff"/>
    <g id="Group_168869" data-name="Group 168869">
      <g id="Group_168313" data-name="Group 168313" transform="translate(-898.769 -578)">
        <g id="Group_168043" data-name="Group 168043" transform="translate(898.769 578)">
          <circle id="Ellipse_614" data-name="Ellipse 614" cx="30" cy="30" r="30" transform="translate(0 0)" fill="#fff" stroke="rgba(0,0,0,0)" stroke-width="1"/>
        </g>
      </g>
      <g id="Group_168044" data-name="Group 168044" transform="translate(16 18)">
        <path id="Path_13425" data-name="Path 13425" d="M1194.363-1133.861h10.781a3.007,3.007,0,0,1,3.212,3.2q0,10.326,0,20.652c0,.6-.255,1.013-.763,1.094a1.435,1.435,0,0,1-.8-.133c-1.795-.877-3.575-1.782-5.366-2.666a1.459,1.459,0,0,0-.621-.146q-8.672-.012-17.344-.007a2.988,2.988,0,0,1-3.009-2.286,3.455,3.455,0,0,1-.09-.8q-.008-7.9,0-15.809a2.993,2.993,0,0,1,3.1-3.092Q1188.91-1133.866,1194.363-1133.861Zm12,22.371v-19.184c0-.825-.374-1.2-1.2-1.2h-21.6c-.855,0-1.217.36-1.217,1.213q0,7.781,0,15.561c0,.875.359,1.237,1.226,1.237q8.767,0,17.534.009a2.212,2.212,0,0,1,.921.22c1.34.645,2.665,1.321,4,1.985C1206.124-1111.6,1206.227-1111.553,1206.365-1111.49Z" transform="translate(-1180.356 1133.862)" fill="#0d85d6" stroke="#0d85d6" stroke-width="0.5"/>
        <path id="Path_13426" data-name="Path 13426" d="M1241.828-1078.522q-3.422,0-6.845,0a1.032,1.032,0,0,1-1.057-.668.976.976,0,0,1,.894-1.281c.062-.006.125,0,.188,0h13.658a1.035,1.035,0,0,1,1.089.667.982.982,0,0,1-1.019,1.283c-1.031.008-2.063,0-3.094,0Z" transform="translate(-1227.84 1086.495)" fill="#0d85d6" stroke="#0d85d6" stroke-width="0.5"/>
        <path id="Path_13427" data-name="Path 13427" d="M1241.811-1045.006c2.261,0,4.522,0,6.782.006a1.607,1.607,0,0,1,.66.142.919.919,0,0,1,.48.967.989.989,0,0,1-.922.833,1.948,1.948,0,0,1-.219,0q-6.814,0-13.627,0a1.6,1.6,0,0,1-.6-.117.931.931,0,0,1-.544-.964,1,1,0,0,1,.962-.864c.093-.007.188,0,.281,0Z" transform="translate(-1227.779 1055.027)" fill="#0d85d6" stroke="#0d85d6" stroke-width="0.5"/>
        <path id="Path_13428" data-name="Path 13428" d="M1238.354-1009.532c1.115,0,2.229,0,3.344,0a1.025,1.025,0,0,1,1.036.652.977.977,0,0,1-.873,1.3,1.359,1.359,0,0,1-.156,0q-3.375,0-6.75,0a1.03,1.03,0,0,1-1.036-.653.977.977,0,0,1,1-1.3C1236.062-1009.539,1237.208-1009.532,1238.354-1009.532Z" transform="translate(-1227.827 1023.553)" fill="#0d85d6" stroke="#0d85d6" stroke-width="0.5"/>
      </g>
    </g>
  </g>
</svg>
