
<svg xmlns="http://www.w3.org/2000/svg" width="8.501" height="5.193" viewBox="0 0 8.501 5.193">
  <path id="Path_13732" data-name="Path 13732" d="M0,4.072A.736.736,0,0,0,.2,4.5l3,3.216h0A.858.858,0,0,0,3.78,8,.886.886,0,0,0,4.4,7.816a.745.745,0,0,0,.29-.535.729.729,0,0,0-.217-.563L1.934,4l2.54-2.718h0A.728.728,0,0,0,4.691.719.745.745,0,0,0,4.4.184.885.885,0,0,0,3.78,0a.858.858,0,0,0-.573.283L.2,3.5h0a.725.725,0,0,0-.2.57Z" transform="translate(0.251 4.943) rotate(-90)" fill="#344857" stroke="#344857" stroke-linecap="round" stroke-linejoin="round" stroke-width="0.5"/>
</svg>
