<svg id="Group_168989" data-name="Group 168989" xmlns="http://www.w3.org/2000/svg" xmlns:xlink="http://www.w3.org/1999/xlink" width="19.849" height="23.073" viewBox="0 0 19.849 23.073">
  <defs>
    <clipPath id="clip-path">
      <rect id="Rectangle_149163" data-name="Rectangle 149163" width="19.849" height="23.073" fill="none"/>
    </clipPath>
  </defs>
  <g id="Group_168988" data-name="Group 168988" clip-path="url(#clip-path)">
    <path id="Path_13789" data-name="Path 13789" d="M16.8,0H3.049A3.051,3.051,0,0,0,0,3.056V20.011a3.062,3.062,0,0,0,3.049,3.062H13.295a.659.659,0,0,0,.531-.278L19.7,16.923h0a.448.448,0,0,0,.1-.165.548.548,0,0,0,.051-.24V3.056A3.051,3.051,0,0,0,16.8,0Z" transform="translate(0)" fill="#e5252a"/>
    <path id="Path_13790" data-name="Path 13790" d="M251.393,307.429v-1.974h0a1.793,1.793,0,0,1,1.8-1.784h1.961Z" transform="translate(-237.193 -286.518)" fill="#fff"/>
    <path id="Path_13791" data-name="Path 13791" d="M53.149,156.682H52.086v1.632a.643.643,0,0,1-.633.633.633.633,0,0,1-.633-.633V153.8a.632.632,0,0,1,.633-.633h1.7a1.759,1.759,0,1,1,0,3.517Z" transform="translate(-47.95 -144.513)" fill="#fff"/>
    <path id="Path_13792" data-name="Path 13792" d="M143.177,156.976a1.755,1.755,0,0,1-1.759,1.759H139.71a.633.633,0,0,1-.633-.633v-4.53a.633.633,0,0,1,.633-.633h1.708a1.772,1.772,0,0,1,1.759,1.771Z" transform="translate(-131.221 -144.301)" fill="#fff"/>
    <path id="Path_13793" data-name="Path 13793" d="M227.78,158.1v-4.53h0a.633.633,0,0,1,.633-.633h2.847a.633.633,0,0,1,0,1.265h-2.214v1h1.468a.643.643,0,0,1,.633.633.633.633,0,0,1-.633.633h-1.468V158.1a.633.633,0,0,1-1.265,0Z" transform="translate(-214.914 -144.301)" fill="#fff"/>
    <path id="Path_13794" data-name="Path 13794" d="M163.048,175.849v2.265a.493.493,0,0,1-.493.493h-1.075v-3.264h1.075a.506.506,0,0,1,.493.5Z" transform="translate(-152.358 -165.439)" fill="#e5252a"/>
    <path id="Path_13795" data-name="Path 13795" d="M74.79,176.052a.5.5,0,0,1-.506.494H73.221v-.987h1.063a.482.482,0,0,1,.506.487Z" transform="translate(-69.085 -165.642)" fill="#e5252a"/>
  </g>
</svg>
