<svg xmlns="http://www.w3.org/2000/svg" width="18.549" height="18.549" viewBox="0 0 18.549 18.549">
  <path id="noun-language-4064689" d="M106.914,27.981a8.921,8.921,0,0,0-7.749,13.347h0a.2.2,0,0,0,.062.108,8.92,8.92,0,0,0,15.388-.026h0a.2.2,0,0,0,.029-.05,8.921,8.921,0,0,0-7.73-13.379Zm-.2.407v3.958H103.4a10.253,10.253,0,0,1,.6-1.521C104.732,29.374,105.693,28.489,106.717,28.388Zm.4,0c1.024.1,1.985.987,2.71,2.436a10.224,10.224,0,0,1,.6,1.521h-3.313Zm-1.786.139a5.727,5.727,0,0,0-1.675,2.12,10.772,10.772,0,0,0-.665,1.7H99.709a8.526,8.526,0,0,1,5.619-3.818Zm3.174,0a8.526,8.526,0,0,1,5.618,3.818h-3.277a10.76,10.76,0,0,0-.666-1.7,5.721,5.721,0,0,0-1.676-2.119Zm-9.03,4.214h3.4a16.127,16.127,0,0,0-.518,3.966H98.392a8.486,8.486,0,0,1,1.08-3.966Zm3.815,0h3.43v3.966h-3.964a15.693,15.693,0,0,1,.533-3.966Zm3.827,0h3.43a15.7,15.7,0,0,1,.533,3.966h-3.963Zm3.842,0h3.4a8.485,8.485,0,0,1,1.08,3.966h-3.963a16.126,16.126,0,0,0-.518-3.966ZM98.392,37.1h3.965a16.125,16.125,0,0,0,.523,3.985h-3.4A8.482,8.482,0,0,1,98.392,37.1Zm4.362,0h3.964v3.985h-3.424a15.685,15.685,0,0,1-.539-3.985Zm4.36,0h3.963a15.675,15.675,0,0,1-.539,3.985h-3.424Zm4.36,0h3.963a8.484,8.484,0,0,1-1.091,3.985h-3.4a16.127,16.127,0,0,0,.523-3.985ZM99.722,41.486h3.271a10.752,10.752,0,0,0,.66,1.679,5.72,5.72,0,0,0,1.674,2.118,8.526,8.526,0,0,1-5.6-3.8Zm3.688,0h3.306v3.937c-1.024-.1-1.985-.986-2.71-2.436a10.225,10.225,0,0,1-.6-1.5Zm3.7,0h3.306a10.2,10.2,0,0,1-.6,1.5c-.725,1.449-1.686,2.334-2.71,2.436Zm3.724,0h3.269a8.527,8.527,0,0,1-5.6,3.8,5.718,5.718,0,0,0,1.674-2.118,10.744,10.744,0,0,0,.66-1.679Z" transform="translate(-97.64 -27.631)" fill="#fff" stroke="#fff" stroke-width="0.7"/>
</svg>
