<svg xmlns="http://www.w3.org/2000/svg" width="99.673" height="99.673" viewBox="0 0 99.673 99.673">
  <g id="Group_170369" data-name="Group 170369" transform="translate(-785.069 -433.927)">
    <g id="Group_170368" data-name="Group 170368" transform="translate(-14438 2968.527)">
      <path id="Path_14318" data-name="Path 14318" d="M158.436,137.673A49.236,49.236,0,1,0,109.2,88.436,49.307,49.307,0,0,0,158.436,137.673Zm0-93.893A44.656,44.656,0,1,1,113.78,88.436,44.714,44.714,0,0,1,158.436,43.78Z" transform="translate(15114.469 -2573.2)" fill="#d63548" stroke="#d63548" stroke-width="1.2"/>
      <path id="Path_14319" data-name="Path 14319" d="M233.577,225.144a2.214,2.214,0,0,0,3.206,0l33.091-33.092a2.267,2.267,0,1,0-3.206-3.206L235.18,220.221l-15.687-15.688a2.267,2.267,0,0,0-3.206,3.206Z" transform="translate(15029.824 -2691.702)" fill="#d63548" stroke="#d63548" stroke-width="1.2"/>
    </g>
    <circle id="Ellipse_781" data-name="Ellipse 781" cx="46" cy="46" r="46" transform="translate(789 438)" fill="#d63548" opacity="0.1"/>
  </g>
</svg>
