<svg xmlns="http://www.w3.org/2000/svg" width="91.242" height="127.001" viewBox="0 0 91.242 127.001">
  <g id="Group_168079" data-name="Group 168079" transform="translate(-1088.816 -330.989)">
    <g id="Group_168076" data-name="Group 168076" transform="translate(1089.816 332)">
      <path id="Path_13445" data-name="Path 13445" d="M1893-940.5c0-6.688.142-13.38-.037-20.063a13.541,13.541,0,0,1,12.619-14.289c.874-.044.8-.526.8-1.095q-.007-6.479,0-12.958c.009-15.291,9.975-27.579,25.045-30.106,14.2-2.38,26.485,2.641,33.561,14.9a28.57,28.57,0,0,1,3.8,14.23c.043,4.6.026,9.2,0,13.794,0,.812.1,1.17,1.084,1.261a13.263,13.263,0,0,1,12.294,13.424c.038,13.886.077,27.774-.01,41.66a25.328,25.328,0,0,1-25.058,25.079q-19.505.136-39.013,0A25.377,25.377,0,0,1,1893-919.877C1892.958-926.75,1893-933.625,1893-940.5Zm44.726-25.477q-15.327,0-30.653,0-5.153,0-5.154,5.118-.005,20.273,0,40.546a16.481,16.481,0,0,0,16.781,16.752q18.88.028,37.759,0a16.479,16.479,0,0,0,16.79-16.744q.029-20.273,0-40.546c0-3.39-1.749-5.126-5.154-5.127Q1952.91-965.978,1937.722-965.975Zm-.28-8.917c7.055,0,14.11-.024,21.164.026,1.059.008,1.307-.287,1.294-1.314-.058-4.548.05-9.1-.046-13.645a20.536,20.536,0,0,0-8.052-16.268c-4.59-3.675-9.942-4.615-15.686-4.5a21.1,21.1,0,0,0-20.822,20.905c-.031,4.5.026,9-.031,13.506-.013,1.023.228,1.325,1.292,1.317C1923.518-974.917,1930.48-974.892,1937.442-974.892Z" transform="translate(-1892.953 1019.583)" fill="#d63548" stroke="#fff" stroke-width="2"/>
    </g>
    <circle id="Ellipse_617" data-name="Ellipse 617" cx="17.819" cy="17.819" r="17.819" transform="translate(1117.012 398.954)" fill="#f3bdc5"/>
    <g id="Group_168077" data-name="Group 168077" transform="translate(1113.11 395.489)">
      <path id="Path_13446" data-name="Path 13446" d="M2004.8-822.4c-.032-.24-.062-.482-.091-.723-.065-.536-.132-1.091-.235-1.644a21.1,21.1,0,0,0-10.109-14.641,20.37,20.37,0,0,0-9.3-2.94c-.025,0-.049-.012-.073-.018-.043-.011-.087-.023-.131-.032l-2.582-.02-.149.013c-.355.064-.717.1-1.1.145-.4.043-.814.088-1.233.164a21.132,21.132,0,0,0-12.329,6.946,20.657,20.657,0,0,0-5.206,11.931,20.775,20.775,0,0,0,4.316,15.1,20.624,20.624,0,0,0,12.428,7.863,23.05,23.05,0,0,0,4.713.5,20.622,20.622,0,0,0,12.69-4.408,20.853,20.853,0,0,0,7.925-12.477,18.156,18.156,0,0,0,.4-2.772,1.27,1.27,0,0,1,.03-.176c.011-.054.022-.107.031-.161l.012-2.546Zm-9.776,12.824a16.18,16.18,0,0,1-11.52,4.811h-.036a16.361,16.361,0,0,1-16.313-16.322,16.361,16.361,0,0,1,16.313-16.322h.035A16.363,16.363,0,0,1,1999.8-821.1,16.125,16.125,0,0,1,1995.027-809.571Z" transform="translate(-1962.153 842.413)" fill="#d63548"/>
    </g>
    <path id="Path_13445-2" data-name="Path 13445" d="M2002.036-810.222l-1.582,1.5q-3.565,3.378-7.123,6.762-1.165-1.212-2.343-2.412-.741-.759-1.481-1.52a2.309,2.309,0,0,0-1.687-.8.1.1,0,0,1-.022,0,2.179,2.179,0,0,0-1.016.234,2.166,2.166,0,0,0-1.176,1.577,2.343,2.343,0,0,0,.675,2.017q2.647,2.734,5.311,5.452a2.326,2.326,0,0,0,1.664.764,2.412,2.412,0,0,0,1.655-.724q5.087-4.819,10.169-9.641a3.635,3.635,0,0,0,.335-.356,2.2,2.2,0,0,0-.29-3.064A2.234,2.234,0,0,0,2002.036-810.222Z" transform="translate(-861.278 1220.625)" fill="#d63548"/>
  </g>
</svg>
