<svg xmlns="http://www.w3.org/2000/svg" xmlns:xlink="http://www.w3.org/1999/xlink" width="183" height="121" viewBox="0 0 183 121">
  <defs>
    <clipPath id="clip-Artboard_37">
      <rect width="183" height="121"/>
    </clipPath>
  </defs>
  <g id="Artboard_37" data-name="Artboard – 37" clip-path="url(#clip-Artboard_37)">
    <rect width="183" height="121" fill="#fff"/>
    <g id="Group_168866" data-name="Group 168866">
      <g id="Group_168312" data-name="Group 168312" transform="translate(-685.5 -820.333)">
        <g id="Group_163962" data-name="Group 163962" transform="translate(685.5 820.333)">
          <rect id="Rectangle_148366" data-name="Rectangle 148366" width="183" height="121" rx="20" transform="translate(0 0)" fill="#fff"/>
          <g id="Group_163935" data-name="Group 163935" transform="translate(22.616 36.777)" opacity="0.3">
            <g id="Group_163927" data-name="Group 163927" transform="translate(17.667 0)">
              <rect id="Rectangle_148367" data-name="Rectangle 148367" width="0.448" height="64.292" fill="#858585"/>
            </g>
            <g id="Group_163928" data-name="Group 163928" transform="translate(0 0)">
              <rect id="Rectangle_148368" data-name="Rectangle 148368" width="0.448" height="64.292" fill="#858585"/>
            </g>
            <g id="Group_163929" data-name="Group 163929" transform="translate(42.097 0)">
              <rect id="Rectangle_148369" data-name="Rectangle 148369" width="0.448" height="64.292" fill="#858585"/>
            </g>
            <g id="Group_163930" data-name="Group 163930" transform="translate(63.145 0)">
              <rect id="Rectangle_148370" data-name="Rectangle 148370" width="0.448" height="64.292" fill="#858585"/>
            </g>
            <g id="Group_163931" data-name="Group 163931" transform="translate(84.194 0)">
              <rect id="Rectangle_148371" data-name="Rectangle 148371" width="0.448" height="64.292" fill="#858585"/>
            </g>
            <g id="Group_163932" data-name="Group 163932" transform="translate(105.242 0)">
              <rect id="Rectangle_148372" data-name="Rectangle 148372" width="0.448" height="64.292" fill="#858585"/>
            </g>
            <g id="Group_163933" data-name="Group 163933" transform="translate(129.672 0)">
              <rect id="Rectangle_148373" data-name="Rectangle 148373" width="0.448" height="64.292" fill="#858585"/>
            </g>
            <g id="Group_163934" data-name="Group 163934" transform="translate(147.339 0)">
              <rect id="Rectangle_148374" data-name="Rectangle 148374" width="0.448" height="64.292" fill="#858585"/>
            </g>
          </g>
          <g id="Group_163936" data-name="Group 163936" transform="translate(20.047 105.902)">
            <path id="Path_13343" data-name="Path 13343" d="M1225.276,686.543a.553.553,0,0,1-.215-.448.063.063,0,0,1,.017-.044.055.055,0,0,1,.042-.018h.145a.065.065,0,0,1,.071.065.353.353,0,0,0,.143.273.529.529,0,0,0,.313.088.409.409,0,0,0,.334-.142.583.583,0,0,0,.118-.384v-1.019h-1.016a.064.064,0,0,1-.047-.018.064.064,0,0,1-.018-.047v-.108a.064.064,0,0,1,.018-.047.065.065,0,0,1,.047-.018h1.221a.064.064,0,0,1,.068.068v1.2a.871.871,0,0,1-.087.4.624.624,0,0,1-.252.265.777.777,0,0,1-.39.094A.832.832,0,0,1,1225.276,686.543Z" transform="translate(-1225.061 -684.675)" fill="#858585"/>
            <path id="Path_13344" data-name="Path 13344" d="M1236.418,686.65a.052.052,0,0,1-.017-.04l.005-.031.706-1.841a.088.088,0,0,1,.091-.063h.182a.088.088,0,0,1,.091.063l.706,1.841.006.031a.053.053,0,0,1-.018.04.059.059,0,0,1-.041.017h-.134a.07.07,0,0,1-.047-.016.076.076,0,0,1-.024-.033l-.159-.41h-.942l-.157.41a.074.074,0,0,1-.071.048h-.137A.052.052,0,0,1,1236.418,686.65Zm.486-.677h.78l-.39-1.022Z" transform="translate(-1234.608 -684.675)" fill="#858585"/>
            <path id="Path_13345" data-name="Path 13345" d="M1250.206,686.649a.065.065,0,0,1-.017-.047v-1.859a.07.07,0,0,1,.017-.05.059.059,0,0,1,.046-.018h.125a.067.067,0,0,1,.043.011.234.234,0,0,1,.028.028l.954,1.469v-1.44a.067.067,0,0,1,.018-.05.064.064,0,0,1,.047-.018h.128a.064.064,0,0,1,.068.068V686.6a.069.069,0,0,1-.019.048.062.062,0,0,1-.047.02h-.128a.07.07,0,0,1-.068-.04l-.954-1.454V686.6a.063.063,0,0,1-.065.065h-.131A.058.058,0,0,1,1250.206,686.649Z" transform="translate(-1246.215 -684.675)" fill="#858585"/>
          </g>
          <g id="Group_163938" data-name="Group 163938" transform="translate(12.135 73.64)">
            <g id="Group_163937" data-name="Group 163937" transform="translate(0 0)">
              <path id="Path_13346" data-name="Path 13346" d="M1175.036,482.639a.063.063,0,0,1-.018-.047v-.086a.166.166,0,0,1,.072-.125l.62-.618a1.748,1.748,0,0,0,.29-.293.414.414,0,0,0,.08-.242.359.359,0,0,0-.094-.263.427.427,0,0,0-.544,0,.45.45,0,0,0-.122.267.075.075,0,0,1-.029.048.077.077,0,0,1-.045.017h-.136a.058.058,0,0,1-.043-.017.054.054,0,0,1-.017-.04.662.662,0,0,1,.081-.292.6.6,0,0,1,.224-.231.679.679,0,0,1,.359-.09.638.638,0,0,1,.479.166.583.583,0,0,1,.161.423.61.61,0,0,1-.087.323,1.316,1.316,0,0,1-.271.3l-.561.569h.9a.059.059,0,0,1,.065.065v.108a.065.065,0,0,1-.018.047.064.064,0,0,1-.047.019h-1.246A.064.064,0,0,1,1175.036,482.639Z" transform="translate(-1175.018 -480.634)" fill="#858585"/>
              <path id="Path_13347" data-name="Path 13347" d="M1186.506,482.485a.935.935,0,0,1-.181-.562l0-.245,0-.253a.9.9,0,0,1,.181-.559.78.78,0,0,1,1.075,0,.906.906,0,0,1,.181.559c0,.053,0,.138,0,.253s0,.193,0,.245a.934.934,0,0,1-.181.562.78.78,0,0,1-1.075,0Zm.866-.167a.686.686,0,0,0,.117-.41q0-.082,0-.236t0-.233a.682.682,0,0,0-.118-.408.44.44,0,0,0-.656,0,.69.69,0,0,0-.117.408l0,.233,0,.236a.688.688,0,0,0,.117.41.445.445,0,0,0,.657,0Z" transform="translate(-1184.535 -480.648)" fill="#858585"/>
            </g>
          </g>
          <g id="Group_163940" data-name="Group 163940" transform="translate(12.035 63.175)">
            <g id="Group_163939" data-name="Group 163939" transform="translate(0 0)">
              <path id="Path_13348" data-name="Path 13348" d="M1175.4,416.6a.064.064,0,0,1-.018-.047v-.415h-.925a.065.065,0,0,1-.047-.019.063.063,0,0,1-.018-.047v-.105a.15.15,0,0,1,.031-.085l.856-1.207a.1.1,0,0,1,.043-.035.145.145,0,0,1,.063-.013h.193a.059.059,0,0,1,.066.065V415.9h.259a.063.063,0,0,1,.066.065v.108a.064.064,0,0,1-.066.066h-.259v.415a.063.063,0,0,1-.066.066h-.131A.064.064,0,0,1,1175.4,416.6Zm-.713-.7h.7v-.991Z" transform="translate(-1174.388 -414.601)" fill="#858585"/>
              <path id="Path_13349" data-name="Path 13349" d="M1186.812,416.284a.935.935,0,0,1-.181-.562l0-.245,0-.253a.907.907,0,0,1,.181-.559.781.781,0,0,1,1.076,0,.906.906,0,0,1,.181.559q0,.08,0,.253t0,.245a.932.932,0,0,1-.181.562.781.781,0,0,1-1.076,0Zm.867-.166a.687.687,0,0,0,.117-.41c0-.055,0-.134,0-.236s0-.182,0-.234a.683.683,0,0,0-.118-.408.389.389,0,0,0-.329-.147.384.384,0,0,0-.327.147.69.69,0,0,0-.117.408l0,.234,0,.236a.688.688,0,0,0,.117.41.445.445,0,0,0,.657,0Z" transform="translate(-1184.693 -414.45)" fill="#858585"/>
            </g>
          </g>
          <g id="Group_163942" data-name="Group 163942" transform="translate(12.112 52.63)">
            <g id="Group_163941" data-name="Group 163941" transform="translate(0 0)">
              <path id="Path_13350" data-name="Path 13350" d="M1175.214,349.868a.632.632,0,0,1-.253-.249.689.689,0,0,1-.087-.342.926.926,0,0,1,.2-.524l.544-.757.016-.02a.091.091,0,0,1,.032-.027.1.1,0,0,1,.046-.01h.139a.052.052,0,0,1,.042.019.065.065,0,0,1,.016.044.074.074,0,0,1-.014.037l-.416.581a.74.74,0,0,1,.165-.017.71.71,0,0,1,.366.093.659.659,0,0,1,.332.579.694.694,0,0,1-.087.34.644.644,0,0,1-.252.252.775.775,0,0,1-.39.094A.8.8,0,0,1,1175.214,349.868Zm.622-.2a.4.4,0,0,0,.168-.152.456.456,0,0,0,.063-.244.44.44,0,0,0-.064-.24.419.419,0,0,0-.169-.154.518.518,0,0,0-.455,0,.409.409,0,0,0-.168.154.444.444,0,0,0-.063.24.45.45,0,0,0,.063.244.4.4,0,0,0,.168.152.511.511,0,0,0,.228.051A.519.519,0,0,0,1175.836,349.673Z" transform="translate(-1174.874 -347.912)" fill="#858585"/>
              <path id="Path_13351" data-name="Path 13351" d="M1186.649,349.6a.933.933,0,0,1-.181-.562l0-.245,0-.253a.908.908,0,0,1,.181-.559.781.781,0,0,1,1.076,0,.9.9,0,0,1,.181.559q0,.08,0,.253t0,.245a.934.934,0,0,1-.181.562.78.78,0,0,1-1.076,0Zm.867-.166a.688.688,0,0,0,.116-.41q0-.082,0-.236c0-.1,0-.182,0-.233a.683.683,0,0,0-.118-.408.44.44,0,0,0-.656,0,.693.693,0,0,0-.117.408l0,.233,0,.236a.691.691,0,0,0,.117.41.445.445,0,0,0,.658,0Z" transform="translate(-1184.633 -347.761)" fill="#858585"/>
            </g>
          </g>
          <g id="Group_163944" data-name="Group 163944" transform="translate(12.084 42.283)">
            <g id="Group_163943" data-name="Group 163943" transform="translate(0 0)">
              <path id="Path_13352" data-name="Path 13352" d="M1175.051,284.3a.591.591,0,0,1-.263-.209.548.548,0,0,1-.094-.319.519.519,0,0,1,.084-.295.55.55,0,0,1,.226-.195.472.472,0,0,1-.176-.172.486.486,0,0,1-.063-.252.469.469,0,0,1,.185-.391.9.9,0,0,1,.972,0,.468.468,0,0,1,.183.393.485.485,0,0,1-.062.249.5.5,0,0,1-.174.175.555.555,0,0,1,.227.195.528.528,0,0,1,.084.3.542.542,0,0,1-.094.317.6.6,0,0,1-.263.208,1.062,1.062,0,0,1-.771,0Zm.723-.252a.344.344,0,0,0,0-.546.611.611,0,0,0-.677,0,.344.344,0,0,0,0,.546.611.611,0,0,0,.677,0Zm-.044-.956a.266.266,0,0,0,.12-.228.274.274,0,0,0-.118-.232.547.547,0,0,0-.591,0,.289.289,0,0,0,0,.464.484.484,0,0,0,.3.087A.523.523,0,0,0,1175.73,283.091Z" transform="translate(-1174.694 -282.322)" fill="#858585"/>
              <path id="Path_13353" data-name="Path 13353" d="M1186.955,284.156a.93.93,0,0,1-.181-.562l0-.245,0-.253a.9.9,0,0,1,.181-.559.78.78,0,0,1,1.076,0,.906.906,0,0,1,.18.559q0,.08,0,.253t0,.245a.933.933,0,0,1-.18.562.781.781,0,0,1-1.076,0Zm.866-.166a.685.685,0,0,0,.117-.41q0-.082,0-.236t0-.233a.68.68,0,0,0-.118-.408.44.44,0,0,0-.656,0,.687.687,0,0,0-.117.408l0,.233,0,.236a.685.685,0,0,0,.117.41.445.445,0,0,0,.657,0Z" transform="translate(-1184.861 -282.322)" fill="#858585"/>
            </g>
          </g>
          <g id="Group_163946" data-name="Group 163946" transform="translate(12.135 94.531)">
            <g id="Group_163945" data-name="Group 163945" transform="translate(0 0)">
              <path id="Path_13354" data-name="Path 13354" d="M1175.036,614.766a.063.063,0,0,1-.018-.047v-.085a.166.166,0,0,1,.072-.125l.62-.618a1.76,1.76,0,0,0,.29-.293.414.414,0,0,0,.08-.242.36.36,0,0,0-.094-.263.428.428,0,0,0-.544,0,.45.45,0,0,0-.122.267.079.079,0,0,1-.074.066h-.136a.057.057,0,0,1-.043-.017.055.055,0,0,1-.017-.04.663.663,0,0,1,.081-.292.6.6,0,0,1,.224-.23.677.677,0,0,1,.359-.09.637.637,0,0,1,.479.167.582.582,0,0,1,.161.423.611.611,0,0,1-.087.323,1.326,1.326,0,0,1-.271.3l-.561.569h.9a.066.066,0,0,1,.049.017.065.065,0,0,1,.017.048v.108a.063.063,0,0,1-.065.065h-1.246A.064.064,0,0,1,1175.036,614.766Z" transform="translate(-1175.018 -612.761)" fill="#858585"/>
              <path id="Path_13355" data-name="Path 13355" d="M1186.506,614.613a.935.935,0,0,1-.181-.562l0-.245,0-.253a.9.9,0,0,1,.181-.559.78.78,0,0,1,1.075,0,.906.906,0,0,1,.181.559q0,.08,0,.253t0,.245a.934.934,0,0,1-.181.562.78.78,0,0,1-1.075,0Zm.866-.166a.688.688,0,0,0,.117-.41q0-.082,0-.236c0-.1,0-.183,0-.234a.682.682,0,0,0-.118-.408.44.44,0,0,0-.656,0,.69.69,0,0,0-.117.408l0,.234,0,.236a.689.689,0,0,0,.117.41.445.445,0,0,0,.657,0Z" transform="translate(-1184.535 -612.776)" fill="#858585"/>
            </g>
          </g>
          <g id="Group_163948" data-name="Group 163948" transform="translate(12.035 84.066)">
            <g id="Group_163947" data-name="Group 163947" transform="translate(0 0)">
              <path id="Path_13356" data-name="Path 13356" d="M1175.4,548.731a.064.064,0,0,1-.018-.047v-.415h-.925a.064.064,0,0,1-.047-.019.063.063,0,0,1-.018-.047V548.1a.149.149,0,0,1,.031-.085l.856-1.207a.1.1,0,0,1,.043-.036.15.15,0,0,1,.063-.013h.193a.059.059,0,0,1,.066.065v1.207h.259a.064.064,0,0,1,.066.066v.108a.064.064,0,0,1-.019.047.063.063,0,0,1-.047.019h-.259v.415a.064.064,0,0,1-.018.047.065.065,0,0,1-.047.019h-.131A.065.065,0,0,1,1175.4,548.731Zm-.713-.7h.7v-.99Z" transform="translate(-1174.388 -546.728)" fill="#858585"/>
              <path id="Path_13357" data-name="Path 13357" d="M1186.812,548.411a.936.936,0,0,1-.181-.562l0-.245,0-.254a.907.907,0,0,1,.181-.559.781.781,0,0,1,1.076,0,.907.907,0,0,1,.181.559c0,.053,0,.138,0,.254s0,.193,0,.245a.932.932,0,0,1-.181.562.781.781,0,0,1-1.076,0Zm.867-.167a.687.687,0,0,0,.117-.41c0-.055,0-.134,0-.236s0-.182,0-.234a.682.682,0,0,0-.118-.408.389.389,0,0,0-.329-.147.384.384,0,0,0-.327.147.689.689,0,0,0-.117.408l0,.234,0,.236a.688.688,0,0,0,.117.41.445.445,0,0,0,.657,0Z" transform="translate(-1184.693 -546.577)" fill="#858585"/>
            </g>
          </g>
          <g id="Group_163949" data-name="Group 163949" transform="translate(42.685 105.902)">
            <path id="Path_13358" data-name="Path 13358" d="M1338.822,686.649a.065.065,0,0,1-.017-.047v-1.859a.07.07,0,0,1,.017-.05.059.059,0,0,1,.045-.018h1.156a.064.064,0,0,1,.068.068v.105a.064.064,0,0,1-.019.047.067.067,0,0,1-.049.018h-.954v.675h.9a.067.067,0,0,1,.05.019.063.063,0,0,1,.019.047v.108a.061.061,0,0,1-.02.047.07.07,0,0,1-.049.018h-.9v.774a.062.062,0,0,1-.02.047.069.069,0,0,1-.049.019h-.134A.059.059,0,0,1,1338.822,686.649Z" transform="translate(-1338.805 -684.675)" fill="#858585"/>
            <path id="Path_13359" data-name="Path 13359" d="M1349.855,686.649a.068.068,0,0,1-.017-.047v-1.859a.072.072,0,0,1,.017-.05.06.06,0,0,1,.046-.018h1.17a.063.063,0,0,1,.068.068v.1a.059.059,0,0,1-.018.045.07.07,0,0,1-.05.017h-.971v.635h.908a.063.063,0,0,1,.068.068v.1a.065.065,0,0,1-.018.047.068.068,0,0,1-.05.018h-.908v.657h.993a.063.063,0,0,1,.068.068v.1a.061.061,0,0,1-.02.047.069.069,0,0,1-.049.019H1349.9A.059.059,0,0,1,1349.855,686.649Z" transform="translate(-1348.093 -684.675)" fill="#858585"/>
            <path id="Path_13360" data-name="Path 13360" d="M1361.286,686.649a.066.066,0,0,1-.017-.047v-1.859a.07.07,0,0,1,.017-.05.059.059,0,0,1,.046-.018h.777a.642.642,0,0,1,.455.145.5.5,0,0,1,.154.379.453.453,0,0,1-.248.421.525.525,0,0,1,.287.472.588.588,0,0,1-.073.29.526.526,0,0,1-.215.208.707.707,0,0,1-.339.077h-.8A.059.059,0,0,1,1361.286,686.649Zm.78-1.128a.418.418,0,0,0,.282-.084.294.294,0,0,0,.1-.235.272.272,0,0,0-.1-.225.445.445,0,0,0-.283-.077h-.529v.621Zm.028.922a.4.4,0,0,0,.286-.1.359.359,0,0,0,0-.505.4.4,0,0,0-.286-.1h-.558v.7Z" transform="translate(-1357.717 -684.675)" fill="#858585"/>
          </g>
          <g id="Group_163950" data-name="Group 163950" transform="translate(63.123 105.902)">
            <path id="Path_13361" data-name="Path 13361" d="M1448.22,686.649a.065.065,0,0,1-.018-.047v-1.859a.071.071,0,0,1,.017-.05.064.064,0,0,1,.049-.018h.134a.072.072,0,0,1,.072.043l.606,1.164.612-1.164a.073.073,0,0,1,.068-.043h.134a.063.063,0,0,1,.049.018.07.07,0,0,1,.017.05V686.6a.064.064,0,0,1-.066.065h-.131a.059.059,0,0,1-.045-.019.066.066,0,0,1-.017-.047v-1.415l-.486.942a.1.1,0,0,1-.091.06h-.085a.1.1,0,0,1-.091-.06l-.484-.942V686.6a.063.063,0,0,1-.065.065h-.128A.064.064,0,0,1,1448.22,686.649Z" transform="translate(-1448.203 -684.675)" fill="#858585"/>
            <path id="Path_13362" data-name="Path 13362" d="M1461.809,686.65a.054.054,0,0,1-.017-.04l.005-.031.706-1.841a.088.088,0,0,1,.091-.063h.182a.089.089,0,0,1,.091.063l.706,1.841.006.031a.052.052,0,0,1-.019.04.059.059,0,0,1-.041.017h-.134a.071.071,0,0,1-.047-.016.076.076,0,0,1-.024-.033l-.159-.41h-.942l-.157.41a.075.075,0,0,1-.071.048h-.137A.055.055,0,0,1,1461.809,686.65Zm.487-.677h.78l-.39-1.022Z" transform="translate(-1459.643 -684.675)" fill="#858585"/>
            <path id="Path_13363" data-name="Path 13363" d="M1475.6,686.649a.066.066,0,0,1-.017-.047v-1.859a.07.07,0,0,1,.017-.05.058.058,0,0,1,.045-.018h.694a.775.775,0,0,1,.508.152.543.543,0,0,1,.184.443.561.561,0,0,1-.109.356.553.553,0,0,1-.3.193l.439.76a.074.074,0,0,1,.008.031.058.058,0,0,1-.057.057h-.125a.1.1,0,0,1-.067-.02.182.182,0,0,1-.044-.057l-.418-.729h-.507v.74a.06.06,0,0,1-.02.047.068.068,0,0,1-.048.019h-.136A.058.058,0,0,1,1475.6,686.649Zm.728-1.02q.43,0,.43-.361t-.43-.361h-.478v.723Z" transform="translate(-1471.251 -684.675)" fill="#858585"/>
          </g>
          <g id="Group_163952" data-name="Group 163952" transform="translate(83.977 105.902)">
            <g id="Group_163951" data-name="Group 163951" transform="translate(0 0)">
              <path id="Path_13364" data-name="Path 13364" d="M1560.1,686.65a.055.055,0,0,1-.017-.04l.006-.031.706-1.841a.089.089,0,0,1,.091-.063h.182a.089.089,0,0,1,.091.063l.706,1.841.006.031a.052.052,0,0,1-.019.04.06.06,0,0,1-.041.017h-.134a.07.07,0,0,1-.047-.016.075.075,0,0,1-.024-.033l-.159-.41h-.942l-.157.41a.075.075,0,0,1-.071.048h-.137A.053.053,0,0,1,1560.1,686.65Zm.487-.677h.78l-.39-1.022Z" transform="translate(-1560.081 -684.675)" fill="#858585"/>
              <path id="Path_13365" data-name="Path 13365" d="M1573.886,686.649a.067.067,0,0,1-.017-.047v-1.859a.071.071,0,0,1,.017-.05.06.06,0,0,1,.045-.018h.72a.758.758,0,0,1,.505.155.645.645,0,0,1,0,.9.764.764,0,0,1-.505.154h-.512v.717a.064.064,0,0,1-.019.047.063.063,0,0,1-.047.019h-.142A.059.059,0,0,1,1573.886,686.649Zm.752-.995q.429,0,.43-.373a.357.357,0,0,0-.107-.279.466.466,0,0,0-.323-.1h-.5v.748Z" transform="translate(-1571.689 -684.675)" fill="#858585"/>
              <path id="Path_13366" data-name="Path 13366" d="M1585.964,686.649a.066.066,0,0,1-.016-.047v-1.859a.07.07,0,0,1,.016-.05.059.059,0,0,1,.045-.018h.695a.774.774,0,0,1,.508.152.543.543,0,0,1,.183.443.528.528,0,0,1-.41.549l.438.76a.072.072,0,0,1,.008.031.053.053,0,0,1-.017.04.053.053,0,0,1-.04.017h-.125a.1.1,0,0,1-.067-.02.186.186,0,0,1-.044-.057l-.418-.729h-.507v.74a.061.061,0,0,1-.02.047.068.068,0,0,1-.049.019h-.137A.059.059,0,0,1,1585.964,686.649Zm.729-1.02q.429,0,.43-.361t-.43-.361h-.478v.723Z" transform="translate(-1581.858 -684.675)" fill="#858585"/>
            </g>
          </g>
          <g id="Group_163953" data-name="Group 163953" transform="translate(104.983 105.902)">
            <path id="Path_13367" data-name="Path 13367" d="M1672.685,686.649a.063.063,0,0,1-.019-.047v-1.859a.073.073,0,0,1,.017-.05.064.064,0,0,1,.049-.018h.134a.072.072,0,0,1,.071.043l.606,1.164.612-1.164a.071.071,0,0,1,.068-.043h.134a.064.064,0,0,1,.048.018.073.073,0,0,1,.017.05V686.6a.063.063,0,0,1-.066.065h-.131a.058.058,0,0,1-.045-.019.066.066,0,0,1-.017-.047v-1.415l-.487.942a.1.1,0,0,1-.091.06h-.085a.1.1,0,0,1-.091-.06l-.484-.942V686.6a.063.063,0,0,1-.019.047.064.064,0,0,1-.047.019h-.128A.062.062,0,0,1,1672.685,686.649Z" transform="translate(-1672.666 -684.675)" fill="#858585"/>
            <path id="Path_13368" data-name="Path 13368" d="M1686.272,686.65a.055.055,0,0,1-.018-.04l.006-.031.706-1.841a.089.089,0,0,1,.091-.063h.182a.089.089,0,0,1,.092.063l.706,1.841.006.031a.052.052,0,0,1-.019.04.059.059,0,0,1-.041.017h-.134a.069.069,0,0,1-.047-.016.071.071,0,0,1-.024-.033l-.16-.41h-.942l-.156.41a.075.075,0,0,1-.071.048h-.137A.054.054,0,0,1,1686.272,686.65Zm.486-.677h.779l-.39-1.022Z" transform="translate(-1684.106 -684.675)" fill="#858585"/>
            <path id="Path_13369" data-name="Path 13369" d="M1698.453,686.649a.063.063,0,0,1-.018-.047v-.675l-.686-1.159a.075.075,0,0,1-.009-.037.054.054,0,0,1,.017-.04.055.055,0,0,1,.04-.017h.137a.077.077,0,0,1,.074.048l.563.931.561-.931a.085.085,0,0,1,.074-.048h.137a.06.06,0,0,1,.041.017.054.054,0,0,1,.019.04.088.088,0,0,1-.012.037l-.686,1.159v.675a.065.065,0,0,1-.019.047.067.067,0,0,1-.05.019h-.137A.064.064,0,0,1,1698.453,686.649Z" transform="translate(-1693.775 -684.675)" fill="#858585"/>
          </g>
          <g id="Group_163954" data-name="Group 163954" transform="translate(125.621 105.902)">
            <path id="Path_13370" data-name="Path 13370" d="M1783.556,686.543a.553.553,0,0,1-.215-.448.066.066,0,0,1,.017-.044.056.056,0,0,1,.043-.018h.146a.065.065,0,0,1,.071.065.354.354,0,0,0,.143.273.528.528,0,0,0,.313.088.411.411,0,0,0,.335-.142.585.585,0,0,0,.118-.384v-1.019h-1.016a.063.063,0,0,1-.066-.065v-.108a.064.064,0,0,1,.019-.047.065.065,0,0,1,.047-.018h1.221a.064.064,0,0,1,.068.068v1.2a.871.871,0,0,1-.087.4.622.622,0,0,1-.252.265.773.773,0,0,1-.39.094A.833.833,0,0,1,1783.556,686.543Z" transform="translate(-1783.341 -684.675)" fill="#858585"/>
            <path id="Path_13371" data-name="Path 13371" d="M1796.23,686.5a.812.812,0,0,1-.2-.6v-1.156a.068.068,0,0,1,.017-.05.058.058,0,0,1,.045-.018h.136a.064.064,0,0,1,.069.068V685.9a.586.586,0,0,0,.13.416.484.484,0,0,0,.369.137.475.475,0,0,0,.365-.138.585.585,0,0,0,.13-.414v-1.161a.071.071,0,0,1,.017-.05.063.063,0,0,1,.048-.018h.136a.062.062,0,0,1,.047.018.067.067,0,0,1,.019.05V685.9a.814.814,0,0,1-.2.6.908.908,0,0,1-1.132,0Z" transform="translate(-1794.025 -684.675)" fill="#858585"/>
            <path id="Path_13372" data-name="Path 13372" d="M1809.3,686.649a.065.065,0,0,1-.017-.047v-1.859a.069.069,0,0,1,.017-.05.058.058,0,0,1,.045-.018h.125a.069.069,0,0,1,.043.011.2.2,0,0,1,.028.028l.954,1.469v-1.44a.067.067,0,0,1,.019-.05.064.064,0,0,1,.047-.018h.128a.068.068,0,0,1,.05.018.067.067,0,0,1,.019.05V686.6a.069.069,0,0,1-.019.048.062.062,0,0,1-.047.02h-.128a.07.07,0,0,1-.068-.04l-.954-1.454V686.6a.063.063,0,0,1-.066.065h-.13A.058.058,0,0,1,1809.3,686.649Z" transform="translate(-1805.178 -684.675)" fill="#858585"/>
          </g>
          <g id="Group_163956" data-name="Group 163956" transform="translate(149.88 105.902)">
            <g id="Group_163955" data-name="Group 163955" transform="translate(0 0)">
              <path id="Path_13373" data-name="Path 13373" d="M1896.713,686.543a.552.552,0,0,1-.215-.448.061.061,0,0,1,.017-.044.055.055,0,0,1,.043-.018h.144a.066.066,0,0,1,.072.065.352.352,0,0,0,.142.273.529.529,0,0,0,.313.088.41.41,0,0,0,.335-.142.582.582,0,0,0,.118-.384v-1.019h-1.016a.062.062,0,0,1-.047-.018.066.066,0,0,1-.018-.047v-.108a.065.065,0,0,1,.018-.047.063.063,0,0,1,.047-.018h1.221a.068.068,0,0,1,.05.018.067.067,0,0,1,.019.05v1.2a.863.863,0,0,1-.087.4.623.623,0,0,1-.252.265.775.775,0,0,1-.39.094A.833.833,0,0,1,1896.713,686.543Z" transform="translate(-1896.498 -684.675)" fill="#858585"/>
              <path id="Path_13374" data-name="Path 13374" d="M1909.388,686.5a.81.81,0,0,1-.2-.6v-1.156a.073.073,0,0,1,.017-.05.061.061,0,0,1,.046-.018h.137a.068.068,0,0,1,.05.018.067.067,0,0,1,.019.05V685.9a.587.587,0,0,0,.129.416.483.483,0,0,0,.368.137.476.476,0,0,0,.366-.138.585.585,0,0,0,.13-.414v-1.161a.071.071,0,0,1,.017-.05.063.063,0,0,1,.048-.018h.137a.064.064,0,0,1,.047.018.067.067,0,0,1,.019.05V685.9a.815.815,0,0,1-.2.6.908.908,0,0,1-1.131,0Z" transform="translate(-1907.182 -684.675)" fill="#858585"/>
              <path id="Path_13375" data-name="Path 13375" d="M1922.453,686.649a.069.069,0,0,1-.017-.047V684.74a.069.069,0,0,1,.017-.047.06.06,0,0,1,.045-.018h.143a.058.058,0,0,1,.045.018.067.067,0,0,1,.017.047v1.688h.951a.066.066,0,0,1,.049.019.063.063,0,0,1,.019.047v.108a.062.062,0,0,1-.02.047.069.069,0,0,1-.048.019H1922.5A.059.059,0,0,1,1922.453,686.649Z" transform="translate(-1918.335 -684.675)" fill="#858585"/>
            </g>
          </g>
          <g id="Group_163958" data-name="Group 163958" transform="translate(167.256 105.874)">
            <g id="Group_163957" data-name="Group 163957" transform="translate(0 0)">
              <path id="Path_13376" data-name="Path 13376" d="M2006.408,686.65a.054.054,0,0,1-.017-.04l.006-.031.706-1.841a.088.088,0,0,1,.091-.063h.182a.088.088,0,0,1,.091.063l.706,1.841.006.031a.054.054,0,0,1-.019.04.058.058,0,0,1-.041.017h-.134a.074.074,0,0,1-.048-.016.079.079,0,0,1-.024-.033l-.159-.41h-.942l-.157.41a.075.075,0,0,1-.071.048h-.136A.054.054,0,0,1,2006.408,686.65Zm.487-.677h.78l-.389-1.022Z" transform="translate(-2006.391 -684.646)" fill="#858585"/>
              <path id="Path_13377" data-name="Path 13377" d="M2020.036,686.5a.81.81,0,0,1-.2-.6v-1.156a.069.069,0,0,1,.018-.05.058.058,0,0,1,.045-.018h.136a.068.068,0,0,1,.05.018.067.067,0,0,1,.019.05V685.9a.583.583,0,0,0,.129.416.483.483,0,0,0,.368.137.477.477,0,0,0,.366-.138.585.585,0,0,0,.13-.414v-1.161a.068.068,0,0,1,.017-.05.063.063,0,0,1,.049-.018h.136a.063.063,0,0,1,.047.018.068.068,0,0,1,.019.05V685.9a.816.816,0,0,1-.2.6.908.908,0,0,1-1.132,0Z" transform="translate(-2017.711 -684.646)" fill="#858585"/>
              <path id="Path_13378" data-name="Path 13378" d="M2032.821,686.339a.8.8,0,0,1-.219-.555c0-.057,0-.146,0-.268s0-.213,0-.268a.774.774,0,0,1,.218-.551.783.783,0,0,1,.576-.2.9.9,0,0,1,.425.091.717.717,0,0,1,.262.218.466.466,0,0,1,.094.235v.006a.048.048,0,0,1-.019.038.063.063,0,0,1-.041.016h-.159a.059.059,0,0,1-.039-.011.118.118,0,0,1-.024-.043.455.455,0,0,0-.168-.225.54.54,0,0,0-.331-.091.519.519,0,0,0-.375.131.558.558,0,0,0-.145.4q0,.083,0,.253t0,.253a.563.563,0,0,0,.145.407.519.519,0,0,0,.375.131.552.552,0,0,0,.387-.132.51.51,0,0,0,.146-.4v-.122h-.436a.061.061,0,0,1-.046-.02.068.068,0,0,1-.019-.048V685.5a.068.068,0,0,1,.019-.048.06.06,0,0,1,.046-.02h.638a.064.064,0,0,1,.068.068v.27a.836.836,0,0,1-.1.406.655.655,0,0,1-.277.27.916.916,0,0,1-.431.1A.775.775,0,0,1,2032.821,686.339Z" transform="translate(-2028.455 -684.495)" fill="#858585"/>
            </g>
          </g>
          <path id="Path_13395" data-name="Path 13395" d="M1390.057,339.979c-15.818,0-15.027,16.874-29.808,16.874-14.394,0-17.525-8.637-29.63-8.637s-12.026,11.433-28.966,11.433c-12.278,0-17.746,9.268-29.468,9.268s-14.777-6.641-29.468-6.641V389.57h147.339Z" transform="translate(-1219.879 -288.578)" fill="#c91010" opacity="0.1"/>
          <g id="Group_163961" data-name="Group 163961" transform="translate(22.839 50.951)">
            <path id="Path_13396" data-name="Path 13396" d="M1272.186,366.98c-5.654,0-9.305-1.5-13.171-3.085-4.258-1.748-8.661-3.556-16.3-3.556v-.9c7.882,0,12.4,1.854,16.766,3.646,3.751,1.54,7.295,2.994,12.7,2.994,5.638,0,9.742-2.178,14.088-4.484,4.432-2.352,9.015-4.784,15.38-4.784,8.965,0,12.96-3.208,16.824-6.309,3.282-2.635,6.382-5.124,12.141-5.124,5.945,0,9.717,2,13.711,4.107,4.211,2.227,8.565,4.53,15.919,4.53,6.991,0,10.346-3.9,13.9-8.036,3.733-4.345,7.594-8.838,15.911-8.838v.9c-7.77,0-11.3,4.112-15.045,8.466-3.552,4.134-7.225,8.408-14.763,8.408-7.663,0-12.149-2.373-16.488-4.668-3.86-2.041-7.505-3.969-13.142-3.969-5.331,0-8.145,2.259-11.4,4.875-3.829,3.074-8.168,6.558-17.562,6.558-6.055,0-10.506,2.362-14.809,4.646C1282.562,364.63,1278.134,366.98,1272.186,366.98Z" transform="translate(-1242.718 -337.145)" fill="#ff931f"/>
          </g>
          <text id="Increase_Sales" data-name="Increase Sales" transform="translate(12.322 20.581)" font-size="9" font-family="Ubuntu-Medium, Ubuntu" font-weight="500"><tspan x="0" y="0">Increase Sales</tspan></text>
          <text id="_65_4_" data-name="+65,4%" transform="translate(142 20.581)" fill="#c91010" font-size="9" font-family="Ubuntu-Bold, Ubuntu" font-weight="700"><tspan x="0" y="0">+65,4%</tspan></text>
        </g>
      </g>
    </g>
  </g>
</svg>
