<svg xmlns="http://www.w3.org/2000/svg" width="100.303" height="107.134" viewBox="0 0 100.303 107.134">
  <g id="Group_168254" data-name="Group 168254" transform="translate(0 2)">
    <path id="Path_13439" data-name="Path 13439" d="M711.352-1069.425l45.663,34.666,46.553-36.061v57.507H711.352v-54.546" transform="translate(-706.875 1116.529)" fill="#f3bdc5"/>
    <g id="Group_168073" data-name="Group 168073">
      <g id="Group_168072" data-name="Group 168072">
        <path id="Path_13440" data-name="Path 13440" d="M746.576-1116.06q-20.71,0-41.42,0a8.284,8.284,0,0,1-8.528-6.508,10.216,10.216,0,0,1-.179-2.344q0-27.782-.021-55.564a8.963,8.963,0,0,1,3.687-7.648c1.846-1.4,3.6-2.919,5.439-4.337a1.977,1.977,0,0,0,.874-1.776c-.048-3.292-.025-6.585-.019-9.877.01-5.361,3.471-8.831,8.851-8.849q7.352-.025,14.7.009a2.671,2.671,0,0,0,1.83-.639q4.6-3.766,9.255-7.473a8.3,8.3,0,0,1,11.085,0q4.7,3.739,9.345,7.54a2.373,2.373,0,0,0,1.624.571q7.352-.031,14.7-.009c5.523.013,8.945,3.452,8.952,8.976,0,3.255.022,6.511-.015,9.766a1.884,1.884,0,0,0,.8,1.7c1.952,1.51,3.845,3.1,5.785,4.624a8.586,8.586,0,0,1,3.4,7.216c-.036,5.014-.009,10.027-.009,15.041q0,20.429-.005,40.859c0,4.374-2.481,7.6-6.489,8.541a11.625,11.625,0,0,1-2.68.185Q767.062-1116.058,746.576-1116.06Zm43.532-55.781c-.506.4-.945.742-1.379,1.092q-18.317,14.737-36.635,29.471a8.288,8.288,0,0,1-11,.013q-17.926-14.416-35.843-28.844c-.712-.574-1.431-1.139-2.174-1.731a2.238,2.238,0,0,0-.184,1.327q-.009,22.561,0,45.123c0,2.431.46,2.893,2.88,2.893h81.6c2.445,0,2.911-.458,2.911-2.862q0-22.562,0-45.123A2.605,2.605,0,0,0,790.108-1171.84Zm-43.526-34.66q-15.6,0-31.205,0c-1.923,0-2.485.561-2.486,2.457q0,15.378-.017,30.756a1.929,1.929,0,0,0,.8,1.692q15.671,12.567,31.312,25.171c1.235.994,1.94,1,3.183,0q15.61-12.553,31.223-25.1a2.127,2.127,0,0,0,.9-1.876c-.031-10.14-.02-20.28-.02-30.419,0-2.209-.477-2.682-2.711-2.683Q762.072-1206.5,746.582-1206.5Zm5.237-6.527c-1.561-1.25-2.853-2.312-4.178-3.331a1.461,1.461,0,0,0-1.786-.165c-1.458,1.056-2.858,2.193-4.538,3.5Zm34.967,35.545c1.1-.9,2.053-1.605,2.914-2.4a1.6,1.6,0,0,0,.261-2.231,21.475,21.475,0,0,0-3.175-2.77Zm-80.46-.06v-7.263c-1.021.825-1.939,1.51-2.79,2.269a1.733,1.733,0,0,0-.141,2.582C704.272-1179.124,705.259-1178.411,706.327-1177.543Z" transform="translate(-696.428 1221.192)" fill="#d63548"/>
        <path id="Path_13441" data-name="Path 13441" d="M808.03-1082.593h20.414c.374,0,.75-.017,1.121.015a3.233,3.233,0,0,1,3.032,3.169,3.25,3.25,0,0,1-3.036,3.285c-.334.03-.673.016-1.009.016H787.276c-.337,0-.675.014-1.009-.016a3.231,3.231,0,0,1-3.024-3.287,3.216,3.216,0,0,1,3.027-3.167c.371-.032.747-.015,1.121-.015Z" transform="translate(-757.2 1124.773)" fill="#d63548"/>
        <path id="Path_13442" data-name="Path 13442" d="M797.129-1132.078c3.437,0,6.874-.007,10.312,0,2.138.006,3.561,1.267,3.6,3.156a3.277,3.277,0,0,1-3.579,3.315q-10.311.022-20.623,0c-2.165,0-3.619-1.365-3.594-3.294.025-1.893,1.444-3.17,3.573-3.177C790.255-1132.086,793.692-1132.078,797.129-1132.078Z" transform="translate(-757.201 1159.412)" fill="#d63548"/>
      </g>
    </g>
  </g>
</svg>
