<svg xmlns="http://www.w3.org/2000/svg" width="101.902" height="126.991" viewBox="0 0 101.902 126.991">
  <g id="Group_168070" data-name="Group 168070" transform="translate(-157.626 -104.658)">
    <g id="Group_168067" data-name="Group 168067" transform="translate(159.767 105.658)">
      <rect id="Rectangle_148956" data-name="Rectangle 148956" width="41.541" height="21.193" transform="translate(26.293 101.396)" fill="#ff6779" opacity="0.32"/>
      <path id="Path_13434" data-name="Path 13434" d="M243.838,137.307a8.257,8.257,0,0,0-8.37-8.093,8.553,8.553,0,0,0-5.423,1.955v-9.688a8.373,8.373,0,0,0-8.324-8.367h-.037a8.317,8.317,0,0,0-5.423,2.009V114.01a8.37,8.37,0,0,0-8.359-8.352h-.019a8.361,8.361,0,0,0-8.345,8.361v4.556a8.352,8.352,0,0,0-13.79,6.341l-.231,40.313-2.721-7.644c-1.474-4.137-6.5-7.559-10.977-5.965l-1.165.4c-.2.067-.41.129-.627.2-1.284.385-3.041.914-3.845,2.5a4.647,4.647,0,0,0-.03,3.682l4.943,21.606a.175.175,0,0,1,.011.03c0,.01,0,.02,0,.031,3.471,12.664,10.025,26.115,18.494,28.371v16.1a5.465,5.465,0,0,0,5.458,5.458h34.569a5.465,5.465,0,0,0,5.458-5.458V205.42a17.728,17.728,0,0,0,6.592-8.414,37.264,37.264,0,0,0,2.158-12.732V137.307ZM232.15,224.533a2.524,2.524,0,0,1-2.52,2.521H195.06a2.524,2.524,0,0,1-2.521-2.521V208.768l32.332-.138a18.111,18.111,0,0,0,7.278-1.576Zm8.75-40.269a34.361,34.361,0,0,1-1.974,11.721,15.091,15.091,0,0,1-14.066,9.708l-32.777.139c-8.018,0-14.78-14.29-18.135-26.532L169,157.664c-.013-.055-.03-.111-.047-.165a2.1,2.1,0,0,1-.146-1.457c.235-.465,1.253-.772,2.069-1.016.247-.075.488-.147.718-.225l1.192-.4c2.836-1.009,6.28,1.46,7.246,4.174l5.536,15.552a1.471,1.471,0,0,0,1.876.891,1.42,1.42,0,0,0,.416-.25c5.566-.289,10.715,2.446,14.93,8a19.817,19.817,0,0,1,3.7,7.884,1.468,1.468,0,0,0,1.437,1.176,1.441,1.441,0,0,0,.294-.03,1.467,1.467,0,0,0,1.146-1.732,22.714,22.714,0,0,0-4.239-9.072c-5.709-7.533-11.979-9.276-16.7-9.216l.263-46.85a5.424,5.424,0,1,1,10.848,0v15.228l0,18.264a1.471,1.471,0,0,0,2.943,0l0-18.265,0-26.135a5.424,5.424,0,0,1,5.4-5.42h.011a5.436,5.436,0,0,1,5.43,5.423v42.651a1.469,1.469,0,1,0,2.939,0V121.481a5.43,5.43,0,0,1,5.43-5.423h.024a5.437,5.437,0,0,1,5.393,5.423v35.306a1.469,1.469,0,1,0,2.939,0V137.322a5.016,5.016,0,0,1,1.507-3.557,5.567,5.567,0,0,1,3.916-1.609,5.315,5.315,0,0,1,5.432,5.157Z" transform="translate(-165.788 -105.658)" fill="#d63548" stroke="#d63548" stroke-width="2"/>
    </g>
    <g id="Group_168068" data-name="Group 168068" transform="translate(241.008 115.785) rotate(3)">
      <path id="Path_13435" data-name="Path 13435" d="M3.56.392c.046.3.321.4.505.573a25.177,25.177,0,0,1,8.373,17.562,2.24,2.24,0,1,1-4.455.3A20.7,20.7,0,0,0,.94,4.16,2.269,2.269,0,0,1,.113,1.65,2.122,2.122,0,0,1,2.224.089c.031,0,.06-.058.09-.089Z" transform="translate(6.101 0)" fill="#d63548"/>
      <path id="Path_13436" data-name="Path 13436" d="M3.012.134A2.214,2.214,0,0,1,3.871.68a19.246,19.246,0,0,1,6.558,13.957,2.236,2.236,0,1,1-4.452.2A14.95,14.95,0,0,0,.85,3.95,2.192,2.192,0,0,1,.325,1.081,2.205,2.205,0,0,1,3.012.134Z" transform="translate(0 5.592)" fill="#d63548"/>
    </g>
    <g id="Group_168069" data-name="Group 168069" transform="translate(157.626 208.889)">
      <path id="Path_13437" data-name="Path 13437" d="M166.511,526.253c-.046-.3-.321-.4-.505-.573a25.175,25.175,0,0,1-8.373-17.562,2.24,2.24,0,1,1,4.455-.3,20.7,20.7,0,0,0,7.044,14.664,2.269,2.269,0,0,1,.827,2.509,2.121,2.121,0,0,1-2.111,1.562c-.031,0-.06.058-.09.089Z" transform="translate(-157.626 -503.885)" fill="#d63548"/>
      <path id="Path_13438" data-name="Path 13438" d="M195.983,516.247a2.215,2.215,0,0,1-.859-.546,19.245,19.245,0,0,1-6.557-13.957,2.236,2.236,0,1,1,4.451-.2,14.949,14.949,0,0,0,5.127,10.889,2.221,2.221,0,0,1-2.162,3.817Z" transform="translate(-180.449 -499.213)" fill="#d63548"/>
    </g>
  </g>
</svg>
