<svg xmlns="http://www.w3.org/2000/svg" xmlns:xlink="http://www.w3.org/1999/xlink" width="60" height="60" viewBox="0 0 60 60">
  <defs>
    <clipPath id="clip-Artboard_31">
      <rect width="60" height="60"/>
    </clipPath>
  </defs>
  <g id="Artboard_31" data-name="Artboard – 31" clip-path="url(#clip-Artboard_31)">
    <rect width="60" height="60" fill="#fff"/>
    <g id="Group_168872" data-name="Group 168872">
      <g id="Group_168307" data-name="Group 168307" transform="translate(-306.769 -344.833)">
        <g id="Group_168035" data-name="Group 168035" transform="translate(305.769 343.833)">
          <circle id="Ellipse_613" data-name="Ellipse 613" cx="31" cy="31" r="31" fill="#fff"/>
          <g id="Group_163998" data-name="Group 163998" transform="translate(16.956 16.846)">
            <path id="Path_13413" data-name="Path 13413" d="M887.56,908.671c-.261-.579-.537-.591-.785-.6-.2-.009-.436-.008-.669-.008a1.284,1.284,0,0,0-.93.435,3.893,3.893,0,0,0-1.221,2.9,6.751,6.751,0,0,0,1.425,3.6c.174.232,2.414,3.855,5.961,5.249,2.948,1.158,3.547.928,4.187.87a3.524,3.524,0,0,0,2.355-1.653,2.894,2.894,0,0,0,.2-1.653c-.087-.145-.32-.232-.669-.406s-2.064-1.015-2.384-1.131-.553-.174-.785.174-.9,1.131-1.1,1.363-.407.261-.756.088a9.557,9.557,0,0,1-2.806-1.726,10.478,10.478,0,0,1-1.941-2.408c-.2-.348-.022-.536.153-.709.157-.156.349-.406.523-.609a2.385,2.385,0,0,0,.349-.58.639.639,0,0,0-.029-.609c-.087-.174-.765-1.893-1.076-2.581Z" transform="translate(-876.992 -900.55)" fill="#20b038" stroke="#20b038" stroke-width="1" fill-rule="evenodd"/>
            <path id="Path_13414" data-name="Path 13414" d="M544.485,521.381A13.943,13.943,0,0,0,522.543,538.2l-1.978,7.222,7.391-1.938a13.93,13.93,0,0,0,6.662,1.7h.006a13.942,13.942,0,0,0,9.862-23.8Zm-9.862,21.443h0a11.573,11.573,0,0,1-5.9-1.615l-.423-.251-4.386,1.15,1.171-4.275-.276-.438a11.588,11.588,0,1,1,9.816,5.429Z" transform="translate(-520.565 -517.294)" fill="#20b038"/>
          </g>
        </g>
      </g>
    </g>
  </g>
</svg>
